<?xml version="1.0" encoding="UTF-8" standalone="no"?>
<!DOCTYPE svg PUBLIC "-//W3C//DTD SVG 1.1//EN"
 "http://www.w3.org/Graphics/SVG/1.1/DTD/svg11.dtd">
<!-- Generated by graphviz version 2.38.0 (20140413.2041)
 -->
<!-- Title: G Pages: 1 -->
<svg width="479pt" height="508pt"
 viewBox="0.00 0.00 479.00 508.00" xmlns="http://www.w3.org/2000/svg" xmlns:xlink="http://www.w3.org/1999/xlink">
<g id="graph0" class="graph" transform="scale(1 1) rotate(0) translate(4 504)">
<title>G</title>
<polygon fill="white" stroke="none" points="-4,4 -4,-504 475,-504 475,4 -4,4"/>
<g id="clust1" class="cluster"><title>cluster_Global</title>
<polygon fill="none" stroke="black" points="8,-8 8,-492 463,-492 463,-8 8,-8"/>
<text text-anchor="middle" x="235.5" y="-479.2" font-family="Times,serif" font-size="11.00" fill="gray">Global</text>
</g>
<g id="clust2" class="cluster"><title>cluster_\Controllers</title>
<polygon fill="none" stroke="black" points="16,-338 16,-464 455,-464 455,-338 16,-338"/>
<text text-anchor="middle" x="235.5" y="-451.2" font-family="Times,serif" font-size="11.00" fill="gray">Controllers</text>
</g>
<g id="clust3" class="cluster"><title>cluster_\Helpers</title>
<polygon fill="none" stroke="black" points="341.5,-96 341.5,-330 441.5,-330 441.5,-96 341.5,-96"/>
<text text-anchor="middle" x="391.5" y="-317.2" font-family="Times,serif" font-size="11.00" fill="gray">Helpers</text>
</g>
<g id="clust4" class="cluster"><title>cluster_\Models</title>
<polygon fill="none" stroke="black" points="16,-16 16,-88 455,-88 455,-16 16,-16"/>
<text text-anchor="middle" x="235.5" y="-75.2" font-family="Times,serif" font-size="11.00" fill="gray">Models</text>
</g>
<!-- \\Controllers\\API -->
<g id="node1" class="node"><title>\\Controllers\\API</title>
<polygon fill="none" stroke="black" points="264,-382 180,-382 180,-346 264,-346 264,-382"/>
<text text-anchor="start" x="188" y="-367.2" font-family="Courier,monospace" font-size="11.00">«abstract»</text>
<text text-anchor="start" x="211.5" y="-355.2" font-family="Courier,monospace" font-size="11.00">API</text>
</g>
<!-- \\Controllers\\Controller -->
<g id="node2" class="node"><title>\\Controllers\\Controller</title>
<polygon fill="none" stroke="black" points="108,-409 24,-409 24,-373 108,-373 108,-409"/>
<text text-anchor="start" x="32" y="-394.2" font-family="Courier,monospace" font-size="11.00">«abstract»</text>
<text text-anchor="start" x="32" y="-382.2" font-family="Courier,monospace" font-size="11.00">Controller</text>
</g>
<!-- \\Controllers\\API&#45;&gt;\\Controllers\\Controller -->
<g id="edge1" class="edge"><title>\\Controllers\\API&#45;&gt;\\Controllers\\Controller</title>
<path fill="none" stroke="black" d="M179.731,-371.236C160.753,-374.563 138.053,-378.543 118.014,-382.056"/>
<polygon fill="none" stroke="black" points="117.361,-378.617 108.116,-383.791 118.57,-385.512 117.361,-378.617"/>
</g>
<!-- \\Controllers\\Home -->
<g id="node3" class="node"><title>\\Controllers\\Home</title>
<polygon fill="none" stroke="black" points="249,-436 195,-436 195,-400 249,-400 249,-436"/>
<text text-anchor="middle" x="222" y="-415.2" font-family="Courier,monospace" font-size="11.00">Home</text>
</g>
<!-- \\Controllers\\Home&#45;&gt;\\Controllers\\Controller -->
<g id="edge2" class="edge"><title>\\Controllers\\Home&#45;&gt;\\Controllers\\Controller</title>
<path fill="none" stroke="black" d="M194.876,-413.42C173.891,-409.741 143.781,-404.462 118.049,-399.95"/>
<polygon fill="none" stroke="black" points="118.52,-396.479 108.065,-398.2 117.311,-403.374 118.52,-396.479"/>
</g>
<!-- \\Controllers\\ProductHuntAPI -->
<g id="node4" class="node"><title>\\Controllers\\ProductHuntAPI</title>
<polygon fill="none" stroke="black" points="447,-382 336,-382 336,-346 447,-346 447,-382"/>
<text text-anchor="middle" x="391.5" y="-361.2" font-family="Courier,monospace" font-size="11.00">ProductHuntAPI</text>
</g>
<!-- \\Controllers\\ProductHuntAPI&#45;&gt;\\Controllers\\API -->
<g id="edge3" class="edge"><title>\\Controllers\\ProductHuntAPI&#45;&gt;\\Controllers\\API</title>
<path fill="none" stroke="black" d="M335.654,-364C315.921,-364 293.747,-364 274.325,-364"/>
<polygon fill="none" stroke="black" points="274.149,-360.5 264.149,-364 274.149,-367.5 274.149,-360.5"/>
</g>
<!-- \\Helpers\\Cache -->
<g id="node5" class="node"><title>\\Helpers\\Cache</title>
<polygon fill="none" stroke="black" points="418.5,-302 364.5,-302 364.5,-266 418.5,-266 418.5,-302"/>
<text text-anchor="middle" x="391.5" y="-281.2" font-family="Courier,monospace" font-size="11.00">Cache</text>
</g>
<!-- \\Helpers\\CacheItem -->
<g id="node6" class="node"><title>\\Helpers\\CacheItem</title>
<polygon fill="none" stroke="black" points="430,-248 353,-248 353,-212 430,-212 430,-248"/>
<text text-anchor="middle" x="391.5" y="-227.2" font-family="Courier,monospace" font-size="11.00">CacheItem</text>
</g>
<!-- \\Helpers\\DB -->
<g id="node7" class="node"><title>\\Helpers\\DB</title>
<polygon fill="none" stroke="black" points="418.5,-194 364.5,-194 364.5,-158 418.5,-158 418.5,-194"/>
<text text-anchor="middle" x="391.5" y="-173.2" font-family="Courier,monospace" font-size="11.00">DB</text>
</g>
<!-- \\Helpers\\Dispatcher -->
<g id="node8" class="node"><title>\\Helpers\\Dispatcher</title>
<polygon fill="none" stroke="black" points="433.5,-140 349.5,-140 349.5,-104 433.5,-104 433.5,-140"/>
<text text-anchor="middle" x="391.5" y="-119.2" font-family="Courier,monospace" font-size="11.00">Dispatcher</text>
</g>
<!-- \\Models\\DBPDO -->
<g id="node9" class="node"><title>\\Models\\DBPDO</title>
<polygon fill="none" stroke="black" points="249,-60 195,-60 195,-24 249,-24 249,-60"/>
<text text-anchor="middle" x="222" y="-39.2" font-family="Courier,monospace" font-size="11.00">DBPDO</text>
</g>
<!-- \\Models\\Model -->
<g id="node10" class="node"><title>\\Models\\Model</title>
<polygon fill="none" stroke="black" points="108,-60 24,-60 24,-24 108,-24 108,-60"/>
<text text-anchor="start" x="32" y="-45.2" font-family="Courier,monospace" font-size="11.00">«abstract»</text>
<text text-anchor="start" x="49" y="-33.2" font-family="Courier,monospace" font-size="11.00">Model</text>
</g>
<!-- \\Models\\DBPDO&#45;&gt;\\Models\\Model -->
<g id="edge4" class="edge"><title>\\Models\\DBPDO&#45;&gt;\\Models\\Model</title>
<path fill="none" stroke="black" d="M194.876,-42C173.984,-42 144.047,-42 118.391,-42"/>
<polygon fill="none" stroke="black" points="118.065,-38.5001 108.065,-42 118.065,-45.5001 118.065,-38.5001"/>
</g>
<!-- \\Models\\ProductHuntAPI -->
<g id="node11" class="node"><title>\\Models\\ProductHuntAPI</title>
<polygon fill="none" stroke="black" points="447,-60 336,-60 336,-24 447,-24 447,-60"/>
<text text-anchor="middle" x="391.5" y="-39.2" font-family="Courier,monospace" font-size="11.00">ProductHuntAPI</text>
</g>
<!-- \\Models\\ProductHuntAPI&#45;&gt;\\Models\\DBPDO -->
<g id="edge5" class="edge"><title>\\Models\\ProductHuntAPI&#45;&gt;\\Models\\DBPDO</title>
<path fill="none" stroke="black" d="M335.654,-42C310.615,-42 281.647,-42 259.356,-42"/>
<polygon fill="none" stroke="black" points="259.31,-38.5001 249.31,-42 259.31,-45.5001 259.31,-38.5001"/>
</g>
</g>
</svg>
