<?xml version="1.0" encoding="UTF-8"?>
<!DOCTYPE svg PUBLIC '-//W3C//DTD SVG 1.1//EN' 'http://www.w3.org/Graphics/SVG/1.1/DTD/svg11.dtd'>
<svg
  xmlns="http://www.w3.org/2000/svg"
  width="64px"
  height="64px"
  version="1.1"
  alt="spinner"
  viewBox="0 0 512 512"
  xml:space="preserve"
>
<path style="fill:#009aa0;" d="M256,0C114.843,0,0,114.843,0,256s114.843,256,256,256s256-114.843,256-256S397.157,0,256,0z"/>
<path style="fill:#1ede8a;" d="M256,493.037C125.296,493.037,18.963,386.704,18.963,256S125.296,18.963,256,18.963
	S493.037,125.296,493.037,256S386.704,493.037,256,493.037z"/>
<path style="fill:#009aa0;" d="M262.704,179.532c-3.704-3.704-9.704-3.704-13.407,0l-99.556,99.556
	c-3.704,3.704-3.704,9.704,0,13.407c3.704,3.703,9.704,3.704,13.407,0L256,199.644l92.852,92.852
	c1.852,1.852,4.278,2.778,6.704,2.778c2.426,0,4.852-0.926,6.704-2.778c3.704-3.704,3.704-9.704,0-13.407L262.704,179.532z"/>
</svg>
