<svg height="512pt" viewBox="-15 0 511 512" width="512pt" xmlns="http://www.w3.org/2000/svg"><path d="m147.484375 109.308594c23.464844 0 48.722656 3.890625 75.066406 11.5625 27.792969 8.09375 55.457031 20.03125 82.21875 35.484375 26.953125 15.5625 51.273438 33.691406 72.277344 53.882812 19.90625 19.132813 35.917969 39.207031 47.597656 59.664063 10.871094 19.03125 17.535157 37.976562 19.28125 54.78125 1.613281 15.546875-.898437 29.195312-7.460937 40.566406-6.617188 11.457031-17.289063 20.503906-31.722656 26.886719-15.613282 6.90625-35.582032 10.554687-57.746094 10.554687-23.46875 0-48.722656-3.886718-75.070313-11.558594-27.792969-8.09375-55.457031-20.035156-82.21875-35.484374-26.957031-15.5625-51.273437-33.691407-72.277343-53.882813-19.90625-19.136719-35.921876-39.210937-47.601563-59.667969-10.867187-19.03125-17.535156-37.976562-19.277344-54.78125-1.613281-15.546875.894531-29.195312 7.460938-40.566406 6.613281-11.457031 17.289062-20.503906 31.722656-26.886719 15.613281-6.90625 35.582031-10.554687 57.746094-10.554687zm-.003906-30c-52.585938 0-95.277344 17.5-115.449219 52.441406-40.058594 69.382812 23.820312 181.257812 142.675781 249.878906 59 34.0625 120.453125 51.0625 172.289063 51.0625 52.585937 0 95.273437-17.5 115.449218-52.441406 40.058594-69.382812-23.820312-181.257812-142.675781-249.878906-59-34.0625-120.453125-51.0625-172.289062-51.0625zm0 0" fill="#3ccbde"/><path d="m347.011719 109.308594c22.164062 0 42.128906 3.648437 57.734375 10.554687 14.429687 6.382813 25.101562 15.429688 31.71875 26.886719 6.5625 11.371094 9.074218 25.019531 7.460937 40.566406-1.746093 16.804688-8.410156 35.75-19.28125 54.78125-11.679687 20.457032-27.691406 40.53125-47.597656 59.667969-21.003906 20.191406-45.324219 38.320313-72.277344 53.882813-26.761719 15.449218-54.421875 27.386718-82.21875 35.480468-26.347656 7.671875-51.605469 11.5625-75.070312 11.5625-22.167969 0-42.136719-3.648437-57.746094-10.550781-14.433594-6.382813-25.105469-15.429687-31.722656-26.890625-6.566407-11.371094-9.074219-25.019531-7.460938-40.566406 1.742188-16.804688 8.410157-35.75 19.277344-54.78125 11.679687-20.457032 27.695313-40.53125 47.601563-59.664063 21.003906-20.191406 45.320312-38.320312 72.277343-53.882812 26.757813-15.449219 54.417969-27.386719 82.214844-35.484375 26.351563-7.671875 51.609375-11.5625 75.082031-11.5625zm-.015625-30c-51.832032.003906-113.296875 17.003906-172.289063 51.0625-118.855469 68.621094-182.734375 180.496094-142.675781 249.878906 20.175781 34.945312 62.855469 52.441406 115.449219 52.441406 51.832031 0 113.296875-17.003906 172.289062-51.0625 118.855469-68.621094 182.734375-180.496094 142.675781-249.878906-20.175781-34.945312-62.855468-52.445312-115.449218-52.441406zm0 0" fill="#81d9e7"/><path d="m247.238281 37.5c13.128907 0 26.203125 4.648438 38.863281 13.820312 13.679688 9.914063 26.753907 25.160157 37.800782 44.085938 11.878906 20.34375 21.253906 44.25 27.871094 71.058594 6.984374 28.285156 10.527343 58.410156 10.527343 89.535156s-3.542969 61.25-10.527343 89.535156c-6.617188 26.804688-15.996094 50.710938-27.871094 71.054688-11.050782 18.929687-24.121094 34.175781-37.800782 44.085937-12.660156 9.171875-25.734374 13.824219-38.863281 13.824219-13.128906 0-26.207031-4.652344-38.863281-13.824219-13.683594-9.910156-26.753906-25.15625-37.804688-44.085937-11.875-20.34375-21.25-44.25-27.871093-71.054688-6.980469-28.285156-10.523438-58.410156-10.523438-89.535156s3.542969-61.25 10.523438-89.535156c6.621093-26.804688 15.996093-50.714844 27.871093-71.058594 11.050782-18.925781 24.125-34.171875 37.804688-44.085938 12.660156-9.167968 25.734375-13.820312 38.863281-13.820312m0-30c-80.117187 0-145.0625 111.257812-145.0625 248.5s64.945313 248.5 145.0625 248.5c80.113281 0 145.0625-111.257812 145.0625-248.5s-64.949219-248.5-145.0625-248.5zm0 0" fill="#b5e9f1"/><path d="m341.402344 256c0 52.003906-42.160156 94.164062-94.164063 94.164062-52.007812 0-94.164062-42.160156-94.164062-94.164062 0-52.007812 42.15625-94.164062 94.164062-94.164062 52.003907 0 94.164063 42.15625 94.164063 94.164062zm0 0" fill="#00ddc4"/><path d="m205.667969 256c0-68.882812 41.570312-94.164062 41.570312-94.164062-52.003906 0-94.164062 42.15625-94.164062 94.164062 0 52.003906 42.160156 94.164062 94.164062 94.164062 0 0-41.570312-25.28125-41.570312-94.164062zm0 0" fill="#00c5a3"/><path d="m321.207031 39.199219c0 16.011719-12.980469 28.992187-28.992187 28.992187-16.007813 0-28.988282-12.980468-28.988282-28.992187 0-16.007813 12.980469-28.988281 28.988282-28.988281 16.011718 0 28.992187 12.980468 28.992187 28.988281zm0 0" fill="#fd5c6f"/><path d="m441.492188 403.351562c0 16.011719-12.980469 28.988282-28.988282 28.988282-16.011718 0-28.992187-12.976563-28.992187-28.988282 0-16.011718 12.980469-28.988281 28.992187-28.988281 16.007813 0 28.988282 12.976563 28.988282 28.988281zm0 0" fill="#29ce69"/><path d="m65.984375 325.449219c0 16.007812-12.980469 28.988281-28.988281 28.988281-16.011719 0-28.988282-12.980469-28.988282-28.988281 0-16.011719 12.976563-28.992188 28.988282-28.992188 16.007812 0 28.988281 12.980469 28.988281 28.992188zm0 0" fill="#f4e74d"/><path d="m294.644531 268.226562c4.144531 0 7.5-3.355468 7.5-7.5v-12.449218c0-4.140625-3.355469-7.5-7.5-7.5s-7.5 3.359375-7.5 7.5v12.449218c0 4.144532 3.359375 7.5 7.5 7.5zm0 0"/><path d="m199.832031 268.226562c4.140625 0 7.5-3.355468 7.5-7.5v-12.449218c0-4.140625-3.359375-7.5-7.5-7.5-4.144531 0-7.5 3.359375-7.5 7.5v12.449218c0 4.144532 3.355469 7.5 7.5 7.5zm0 0"/><path d="m247.238281 271c7.136719 0 13.738281-3.5625 17.660157-9.53125 2.273437-3.460938 1.308593-8.109375-2.152344-10.382812-1.269532-.835938-6.882813-2.996094-10.386719 2.148437-1.679687 2.46875-4.128906 2.765625-5.121094 2.765625-.996093 0-3.484375-.269531-5.125-2.765625-2.273437-3.460937-6.921875-4.425781-10.382812-2.148437-3.464844 2.273437-4.425781 6.921874-2.152344 10.382812 3.917969 5.96875 10.523437 9.53125 17.660156 9.53125zm0 0"/><path d="m145.574219 256c0 56.058594 45.605469 101.664062 101.664062 101.664062 56.058594 0 101.664063-45.605468 101.664063-101.664062s-45.605469-101.664062-101.664063-101.664062c-56.058593 0-101.664062 45.605468-101.664062 101.664062zm101.664062-86.664062c47.785157 0 86.664063 38.875 86.664063 86.664062 0 47.785156-38.878906 86.664062-86.664063 86.664062-47.789062 0-86.664062-38.878906-86.664062-86.664062 0-47.789062 38.875-86.664062 86.664062-86.664062zm0 0"/><path d="m459.8125 256.007812c25.183594-46.621093 29.507812-92.707031 9.125-128.007812-20.125-34.863281-60.972656-54.644531-115.425781-56.097656-7.558594-12.296875-15.875-23.265625-24.808594-32.703125 0-20.121094-16.367187-36.484375-36.488281-36.484375-4.820313 0-9.421875.945312-13.636719 2.652344-10.246094-3.546876-20.773437-5.367188-31.339844-5.367188-40.222656 0-77.820312 25.488281-106.308593 71.921875-18.441407.507813-35.550782 3.136719-50.863282 7.871094-3.957031 1.222656-6.171875 5.421875-4.949218 9.378906.996093 3.21875 3.535156 6.007813 9.378906 4.949219 11.824218-2.136719 24.136718-5.800782 37.71875-6.761719-2.664063 5.113281-5.191406 10.378906-7.585938 15.789063-14.226562 1.710937-26.972656 5.007812-37.925781 9.855468-15.921875 7.042969-27.761719 17.136719-35.1875 29.996094-7.371094 12.769531-10.203125 27.9375-8.425781 45.089844 1.246094 12.003906 4.785156 24.851562 10.488281 38.191406-3.503906 4.792969-6.808594 9.621094-9.898437 14.460938-19.507813-40.015626-21.417969-77.074219-5.152344-105.242188 6.78125-11.746094 16.53125-21.609375 28.980468-29.320312 3.519532-2.179688 4.609376-6.804688 2.425782-10.324219-2.179688-3.519531-6.800782-4.605469-10.324219-2.425781-14.578125 9.023437-26.039063 20.65625-34.074219 34.570312-20.0625 34.753906-16.792968 80.136719 9.136719 128.007812-6.863281 12.667969-12.234375 25.359376-15.953125 37.859376-8.421875 4.875-14.449219 12.734374-16.96875 22.136718-2.523438 9.414063-2.535156 26.820313 12.765625 38.203125 2.054687 10.636719 5.742187 20.652344 11.019531 29.792969 20.121094 34.851562 60.960938 54.632812 115.402344 56.09375 28.492188 46.421875 66.082031 71.90625 106.300781 71.90625 21.101563 0 41.5-6.992188 60.621094-20.78125 3.359375-2.421875 4.117187-7.109375 1.695313-10.46875-2.421876-3.359375-7.109376-4.117188-10.46875-1.695312-16.515626 11.90625-33.960938 17.945312-51.851563 17.945312-35.96875 0-70.097656-24.527344-96.097656-69.066406-26.734375-45.804688-41.460938-106.867188-41.460938-171.933594 0-65.070312 14.726563-126.128906 41.464844-171.933594 26-44.539062 60.128906-69.066406 96.097656-69.066406 5.441407 0 10.878907.589844 16.269531 1.71875-3.191406 4.066406-5.539062 8.820312-6.777343 14.003906-20.066407-3.101562-38.792969 4.40625-52.753907 14.523438-14.519531 10.523437-28.3125 26.558594-39.882812 46.378906-12.238281 20.964844-21.886719 45.539062-28.675781 73.039062-7.128907 28.878907-10.742188 59.609376-10.742188 91.335938s3.613281 62.457031 10.742188 91.332031c6.789062 27.5 16.4375 52.070313 28.675781 73.039063 11.570312 19.820312 25.363281 35.859375 39.882812 46.378906 13.960938 10.117188 28.519532 15.25 43.261719 15.25 14.742188 0 29.300781-5.132812 43.261719-15.25 14.519531-10.519531 28.308594-26.558594 39.882812-46.378906 12.238282-20.96875 21.882813-45.539063 28.671876-73.039063 7.128906-28.875 10.746093-59.605469 10.746093-91.332031s-3.617187-62.457031-10.746093-91.335938c-6.789063-27.5-16.4375-52.074218-28.671876-73.039062-4.988281-8.542969-10.378906-16.378906-16.089843-23.398438 4.0625-3.097656 7.460937-7.023437 9.933593-11.527343 37.59375 44.824219 60.574219 119.648437 60.574219 199.300781 0 81.980469-23.695312 157.714844-63.382812 202.585938-2.742188 3.101562-2.453125 7.839843.652343 10.585937 1.425782 1.261719 6.636719 3.386719 10.585938-.648437 7.933594-8.113282 14.480469-18.035157 20.867188-28.421876 14.367187-.394531 27.96875-2.089843 40.507812-5.066406l-.0625-.261718c.097656.058593.191406.121093.289062.175781 5.621094 3.246093 16.664063 7.003906 27.691407 3.648437 23.464843-7.148437 26.042969-25.632812 26.675781-30.136718 8.195312-7.101563 15.03125-15.308594 20.316406-24.460938 20.078125-34.78125 16.804688-80.121094-9.128906-127.992188zm-361.113281-58.9375c-1.117188 8.046876-2.003907 16.207032-2.660157 24.460938-24.109374 24.164062-41.714843 61.832031-44.941406 70.285156-4.714844-1.972656-9.820312-2.949218-14.960937-2.839844 11.207031-30.808593 32.929687-62.695312 62.5625-91.90625zm-3.90625 68.613282c-2.515625-3.21875-4.921875-6.445313-7.203125-9.683594 2.289062-3.246094 4.6875-6.480469 7.203125-9.699219-.070313 3.226563-.070313 16.164063 0 19.382813zm1.246093 24.777344c.652344 8.253906 1.542969 16.414062 2.65625 24.460937-10.191406-10.046875-19.480468-20.4375-27.765624-31.074219 1.664062-3.394531 7.03125-13.007812 7.867187-14.398437 5.253906 7.089843 11.03125 14.121093 17.242187 21.011719zm-80.542968 34.988281c0-11.875 9.625-21.5 21.5-21.5 11.871094 0 21.496094 9.625 21.496094 21.5 0 11.871093-9.625 21.496093-21.496094 21.496093-11.875 0-21.5-9.625-21.5-21.496093zm116.730468 99.21875c-44.417968-3.089844-77.386718-19.914063-93.699218-48.167969-2.71875-4.707031-4.925782-9.703125-6.640625-14.929688 1.722656.246094 8.097656 1.226563 15.511719-1.15625 1.167968 2.980469 2.539062 5.851563 4.117187 8.585938 7.429687 12.863281 19.265625 22.957031 35.183594 29.996094 10.929687 4.835937 23.691406 8.136718 37.925781 9.851562 2.402344 5.417969 4.933594 10.695313 7.601562 15.820313zm-14.183593-31.941407c-9.382813-1.667968-17.851563-4.164062-25.277344-7.449218-12.945313-5.726563-22.453125-13.726563-28.257813-23.777344-1.511718-2.617188-2.761718-5.414062-3.78125-8.332031 5.570313-4.75 9.949219-10.964844 11.511719-18.277344 3.984375-18.628906-6.632812-32.234375-8.429687-34.179687.140625-.402344 24.726562 25.9375 39.046875 38.609374 3.796875 18.71875 8.886719 36.628907 15.1875 53.40625zm-15.191407-220.042968c-14.363281 12.714844-27.304687 26.09375-38.605468 39.835937-3.292969-9.09375-5.386719-17.800781-6.234375-25.976562-1.449219-13.941407.738281-26.070313 6.496093-36.042969 5.800782-10.050781 15.308594-18.050781 28.261719-23.777344 7.433594-3.289062 15.910157-5.761718 25.261719-7.429687-6.296875 16.777343-11.378906 34.679687-15.179688 53.390625zm189.363282-154.972656c12.203125 0 21.425781 9.109374 21.425781 22.773437 0 10.75-9.574219 20.203125-21.425781 20.203125-11.847656 0-21.488282-9.636719-21.488282-21.488281 0-11.847657 9.289063-21.488281 21.488282-21.488281zm-35.867188 28.160156c.550782 17.90625 21.125 34.832031 43.878906 28.921875.277344.320312-34.984374 8.46875-53.03125 14.507812-18.128906-6.0625-36.15625-10.59375-53.78125-13.527343 6.203126-7.355469 28.007813-36.574219 62.933594-29.902344zm-73.15625 43.511718c13.351563 1.859376 27 4.710938 40.796875 8.511719-7.527343 3.054688-15.035156 6.367188-22.503906 9.921875-9.070313-1.933594-18.054687-3.40625-26.824219-4.410156.785156-1.421875 6.421875-10.886719 8.53125-14.023438zm-15.777344 28.355469c3.941407.359375 7.9375.828125 11.976563 1.394531-2.820313 1.546876-14.003906 8.019532-16.769531 9.695313 1.53125-3.785156 3.125-7.484375 4.792968-11.089844zm-18.859374 219.945313c11.828124 8.71875 63.816406 38.738281 77.277343 44.625-1.789062.554687-16.851562 4.769531-22.507812 6.078125-8.367188-4.113281-41.050781-22.976563-48.792969-28.167969-4.402344-10.054688-5.515625-20.507812-5.976562-22.535156zm14.066406 45.488281c2.765625 1.675781 13.933594 8.128906 16.757812 9.675781-4.03125.570313-8.027344 1.042969-11.972656 1.402344-1.664062-3.601562-3.257812-7.296875-4.785156-11.078125zm119.078125 71.433594c-11.351563 8.226562-22.945313 12.394531-34.460938 12.394531-11.519531 0-23.113281-4.167969-34.460937-12.394531-6.648438-4.816407-13.164063-11.023438-19.363282-18.382813 17.757813-2.949218 35.800782-7.492187 53.851563-13.53125 18.125 6.0625 36.160156 10.601563 53.792969 13.535156-6.199219 7.355469-12.710938 13.5625-19.359375 18.378907zm29.585937-31.984375c-13.359375-1.863282-27.011718-4.710938-40.804687-8.515625 7.535156-3.058594 15.054687-6.371094 22.527343-9.929688 9.074219 1.933594 18.046876 3.414063 26.808594 4.417969-.785156 1.421875-6.425781 10.890625-8.53125 14.027344zm15.773438-28.355469c-3.9375-.359375-7.933594-.835937-11.964844-1.402344 2.816406-1.546875 13.996094-8.011719 16.757812-9.691406-1.527343 3.785156-3.125 7.488281-4.792968 11.09375zm12.886718-34.050781c-7.746093 5.195312-15.773437 10.210937-23.925781 14.917968-43.367187 25.035157-89.21875 41.414063-132.832031 47.480469-2.105469-3.132812-7.742188-12.597656-8.527344-14.019531 16.113282-1.84375 32.875-5.28125 49.988282-10.261719 28.375-8.265625 56.589843-20.441406 83.871093-36.191406 13.0625-7.539063 25.574219-15.738281 37.402344-24.453125-.460937 2.023438-4.339844 17.167969-5.976563 22.527344zm14.855469-104.214844c0 20.339844-1.550781 40.226562-4.601562 59.4375-38.011719 32.035156-84.800781 52.492188-102.972657 59.457031-18.128906-6.949219-63.832031-26.652343-102.949218-59.464843-3.050782-19.207032-4.601563-39.09375-4.601563-59.429688 0-20.332031 1.550781-40.21875 4.601563-59.425781 15.105468-12.246094 58.441406-45.996094 102.945312-59.457031 49.558594 15.886718 87.871094 47.210937 102.980469 59.457031 3.046875 19.203125 4.597656 39.089843 4.597656 59.425781zm-8.878906-81.691406c-11.828125-8.714844-43.777344-31.242188-77.289063-44.613282 1.796876-.558593 16.859376-4.773437 22.519532-6.078124 17.316406 7.757812 41.042968 22.976562 48.796875 28.171874 1.632812 5.355469 5.511719 20.496094 5.972656 22.519532zm-14.070313-45.484375c-2.761718-1.675781-13.929687-8.125-16.753906-9.675781 4.035156-.566407 8.027344-1.035157 11.972656-1.394532 1.664063 3.601563 3.257813 7.292969 4.78125 11.070313zm-12.035156-25.417969c-16.117187 1.84375-32.882812 5.285156-49.988281 10.265625-28.371094 8.261719-56.589844 20.4375-83.871094 36.1875-13.0625 7.542969-25.570312 15.738281-37.402343 24.457031.460937-2.027344 4.339843-17.175781 5.976562-22.53125 7.738281-5.1875 15.765625-10.207031 23.925781-14.917968 43.410157-25.0625 89.207031-41.417969 132.820313-47.480469 2.105468 3.140625 7.753906 12.597656 8.539062 14.019531zm42.410156-16.074219c44.425782 3.082031 77.40625 19.910157 93.722657 48.167969 14.332031 24.824219 14.636719 56.476562.882812 91.535156-11.554687 29.453125-32.9375 60.109375-61.101562 87.921875 1.121093-8.042969 2.019531-16.203125 2.679687-24.460937 13.085938-14.511719 24.101563-29.53125 32.75-44.679688 11.378906-19.929687 18.375-39.890625 20.226563-57.726562 1.777343-17.152344-1.054688-32.320313-8.425781-45.089844-7.429688-12.867188-19.265626-22.957031-35.179688-30-10.976562-4.855469-23.726562-8.164062-37.972656-9.871094-2.402344-5.433594-4.933594-10.707031-7.582032-15.796875zm37.453126 158.980469c2.519531 3.21875 4.921874 6.449219 7.207031 9.6875-2.292969 3.246094-4.691407 6.480469-7.207031 9.699219.074218-3.222657.074218-16.160157 0-19.386719zm-1.265626-24.800781c-.660156-8.238281-1.554687-16.414063-2.679687-24.484375 10.210937 10.058594 19.523437 20.472656 27.824219 31.128906-1.664063 3.390625-7.042969 13.003906-7.878906 14.394531-5.257813-7.09375-11.042969-14.136719-17.265626-21.039062zm-22.019531-102.230469c9.371094 1.667969 36.347657 6.300781 53.574219 31.21875 6.550781 9.472656 12.636719 30.914062.261719 61.996094-11.367188-13.816406-24.332031-27.179688-38.671875-39.867188-6.730469-33.738281-14.011719-50.269531-15.164063-53.347656zm-14.140625 305.363281c2.65625-5.105469 5.191406-10.363281 7.585938-15.789062 2.183594-.261719 4.339844-.5625 6.464844-.902344.210937 1.617187.210937 7.890625 5.023437 14.378906-6.121094 1.078125-12.492187 1.847657-19.074219 2.3125zm50.25.207031c-11.875 0-21.5-9.625-21.5-21.5 0-11.871093 9.625-21.496093 21.5-21.496093 11.871094 0 21.496094 9.625 21.496094 21.496093 0 11.875-9.625 21.5-21.496094 21.5zm12.140625-55.910156c-6.898437-2.449218-14.316406-2.582031-21.585937-.835937-17.554688 4.222656-24.597656 21.847656-25.394532 24.394531-.417968.078125 10.078126-34.386719 13.890626-53.132812 14.554687-12.871094 27.484374-26.242188 38.691406-39.851563 3.28125 9.066406 5.367187 17.753906 6.21875 25.941406 1.449218 13.941407.625 28.976563-11.820313 43.484375zm31.304688 7.558594c-2.722657 4.714844-5.949219 9.128906-9.625 13.230469-1.925781-4.796875-4.871094-9.207031-8.738281-12.871094 1.996093-2.5 3.796874-5.125 5.375-7.859375 7.371093-12.769531 10.203124-27.941406 8.425781-45.089844-1.25-12.023437-4.765625-24.835937-10.457031-38.148437 3.515624-4.808594 6.8125-9.632813 9.890624-14.464844 19.5 40.003906 21.402344 77.015625 5.128907 105.203125zm0 0"/></svg>