<svg height="511pt" viewBox="-27 1 511 511.999" width="511pt" xmlns="http://www.w3.org/2000/svg"><path d="m360.289062 425.113281h-262.527343c-36.917969 0-66.847657-29.929687-66.847657-66.847656s29.929688-66.84375 66.847657-66.84375h262.527343c36.917969 0 66.847657 29.925781 66.847657 66.84375s-29.929688 66.847656-66.847657 66.847656zm0 0" fill="#e4996d"/><path d="m118.546875 341.238281c8.535156-4.152343 14.289063-8.488281 14.289063-8.488281l.761718-41.328125h-35.839844c-36.917968 0-66.84375 29.929687-66.84375 66.847656s29.925782 66.84375 66.84375 66.84375h25.425782c-9.9375-7.757812-17.164063-16.457031-22.398438-25.132812-12.628906-20.941407-4.226562-48.042969 17.761719-58.742188zm0 0" fill="#d97c41"/><path d="m188.453125 301.617188v56.164062c0 12.574219 10.195313 22.769531 22.769531 22.769531 12.410156 0 22.496094-9.933593 22.753906-22.28125 0 0-.023437-18.085937 17.300782-18.085937 9.546875 0 17.285156 7.738281 17.285156 17.285156v18.132812c0 12.574219 10.191406 22.765626 22.765625 22.765626s22.769531-10.191407 22.769531-22.765626v-73.984374zm0 0" fill="#f4e74d"/><path d="m397 200.621094h-335.949219c-40.929687 33.875-51.75 71.75-53.019531 99.488281-1.0625 23.238281 27.039062 35.550781 43.683594 19.300781 8.15625-7.960937 17.066406-15.167968 33.199218-15.167968 36.027344 0 36.027344 35.941406 72.054688 35.941406s36.027344-35.941406 72.054688-35.941406c36.03125 0 36.03125 35.941406 72.058593 35.941406 36.027344 0 36.027344-35.941406 72.054688-35.941406 16.132812 0 25.042969 7.210937 33.195312 15.167968 16.648438 16.25 44.75 3.9375 43.6875-19.300781-1.269531-27.738281-12.085937-65.613281-53.019531-99.488281zm0 0" fill="#73da8c"/><path d="m309.683594 200.621094h-248.632813c-40.929687 33.875-51.75 71.75-53.019531 99.488281-1.0625 23.238281 27.039062 35.550781 43.683594 19.300781 8.15625-7.960937 17.066406-15.167968 33.199218-15.167968 35.625 0 36.042969 35.148437 70.886719 35.929687.820313-32.015625 24.851563-60.027344 57.839844-64.960937 59.40625-8.894532 96.042969-34.011719 96.042969-34.011719zm0 0" fill="#29ce69"/><path d="m229.027344 7.5c-113.472656 0-175.269532 64.863281-196.417969 155.449219-9.339844 40 21.144531 78.25 62.222656 78.25h268.382813c41.078125 0 71.566406-38.25 62.226562-78.25-21.148437-90.585938-82.945312-155.449219-196.414062-155.449219zm0 0" fill="#ffbe73"/><path d="m148.367188 162.960938c-21.171876-77.875 7.242187-144.109376 7.503906-144.71875-67.714844 22-107.207032 75.945312-123.261719 144.707031-9.339844 40 21.144531 78.25 62.222656 78.25h167.050781c-45.824218-27.175781-98.707031-23.773438-113.515624-78.238281zm0 0" fill="#ffa93f"/><path d="m386.472656 504.5h-314.894531c-28.785156 0-52.117187-23.335938-52.117187-52.121094 0 0 0-30.859375 30.859374-30.859375h357.414063c30.859375 0 30.859375 30.859375 30.859375 30.859375 0 28.785156-23.335938 52.121094-52.121094 52.121094zm0 0" fill="#ffbe73"/><path d="m113.453125 452.378906s0-30.859375 30.863281-30.859375h-93.996094c-30.863281 0-30.863281 30.859375-30.863281 30.859375 0 28.785156 23.335938 52.121094 52.121094 52.121094h93.996094c-28.785157 0-52.121094-23.335938-52.121094-52.121094zm0 0" fill="#ffa93f"/><path d="m229.027344 192.640625c-15.523438 0-28.101563-12.582031-28.101563-28.101563v-20.429687c0-4.238281 3.433594-7.671875 7.671875-7.671875h40.859375c4.234375 0 7.667969 3.433594 7.667969 7.671875v20.429687c0 15.519532-12.578125 28.101563-28.097656 28.101563zm0 0" fill="#57565c"/><path d="m165.003906 164.539062c0-13.183593-13.421875-23.867187-29.972656-23.867187-16.554688 0-29.972656 10.683594-29.972656 23.867187 0 13.183594 13.417968 23.867188 29.972656 23.867188 16.550781 0 29.972656-10.683594 29.972656-23.867188zm0 0" fill="#ff83b4"/><path d="m352.996094 164.539062c0-13.183593-13.421875-23.867187-29.972656-23.867187-16.554688 0-29.976563 10.683594-29.976563 23.867187 0 13.183594 13.421875 23.867188 29.976563 23.867188 16.550781 0 29.972656-10.683594 29.972656-23.867188zm0 0" fill="#ff83b4"/><g fill="#fff"><path d="m187.289062 69.667969c0 4.140625-3.355468 7.5-7.5 7.5-4.140624 0-7.5-3.359375-7.5-7.5 0-4.144531 3.359376-7.5 7.5-7.5 4.144532 0 7.5 3.355469 7.5 7.5zm0 0"/><path d="m285.761719 69.667969c0 4.140625-3.359375 7.5-7.5 7.5s-7.5-3.359375-7.5-7.5c0-4.144531 3.359375-7.5 7.5-7.5s7.5 3.355469 7.5 7.5zm0 0"/><path d="m236.527344 91.136719c0 4.140625-3.359375 7.5-7.5 7.5-4.144532 0-7.5-3.359375-7.5-7.5 0-4.144531 3.355468-7.5 7.5-7.5 4.140625 0 7.5 3.355469 7.5 7.5zm0 0"/><path d="m236.527344 42.113281c0 4.144531-3.359375 7.5-7.5 7.5-4.144532 0-7.5-3.355469-7.5-7.5 0-4.140625 3.355468-7.5 7.5-7.5 4.140625 0 7.5 3.359375 7.5 7.5zm0 0"/></g><path d="m317.183594 143.9375v-12.453125c0-4.140625-3.359375-7.5-7.5-7.5-4.144532 0-7.5 3.359375-7.5 7.5v12.453125c0 4.140625 3.355468 7.5 7.5 7.5 4.140625 0 7.5-3.359375 7.5-7.5zm0 0"/><path d="m155.867188 143.9375v-12.453125c0-4.140625-3.355469-7.5-7.5-7.5-4.140626 0-7.5 3.359375-7.5 7.5v12.453125c0 4.140625 3.359374 7.5 7.5 7.5 4.144531 0 7.5-3.359375 7.5-7.5zm0 0"/><path d="m457.511719 299.765625c-.988281-21.554687-7.835938-53.171875-34.203125-83.890625 10.410156-16.152344 13.859375-35.691406 9.4375-54.632812-24.277344-103.976563-96.628906-161.242188-203.722656-161.242188-53.796876 0-98.765626 14.199219-133.65625 42.207031-3.230469 2.59375-3.746094 7.3125-1.15625 10.546875 2.59375 3.226563 7.316406 3.742188 10.542968 1.152344 32.160156-25.816406 73.972656-38.90625 124.269532-38.90625 52.277343 0 95.328124 14.117188 127.960937 41.960938 29.839844 25.457031 50.414063 61.691406 61.15625 107.691406 3.917969 16.78125.011719 34.164062-10.722656 47.6875-10.769531 13.574218-26.882813 21.359375-44.203125 21.359375h-268.382813c-17.320312 0-33.429687-7.785157-44.203125-21.359375-10.730468-13.523438-14.636718-30.90625-10.71875-47.6875 8.207032-35.140625 22.3125-64.835938 41.921875-88.253906 2.660157-3.175782 2.242188-7.90625-.933593-10.5625-3.175782-2.660157-7.90625-2.242188-10.566407.933593-21.132812 25.234375-36.285156 57.019531-45.027343 94.472657-4.425782 18.941406-.976563 38.480468 9.4375 54.632812-26.375 30.726562-33.21875 62.359375-34.203126 83.890625-.632812 13.804687 6.085938 32.984375 27.046876 33.941406-2.742188 7.859375-4.171876 16.175781-4.171876 24.558594 0 21.804687 9.503907 41.953125 25.171876 55.78125-37.777344 0-36.628907 37.359375-36.628907 38.332031 0 32.875 26.746094 59.621094 59.621094 59.621094h314.894531c32.875 0 59.617188-26.746094 59.617188-59.621094 0-.972656.65625-38.332031-36.625-38.332031 15.667968-13.828125 25.171875-33.976563 25.171875-55.78125 0-8.378906-1.429688-16.699219-4.171875-24.554687 21.265625-1.777344 27.675781-20.136719 27.046875-33.945313zm-76.863281 114.253906h-204.824219c-4.144531 0-7.5 3.359375-7.5 7.5 0 4.144531 3.355469 7.5 7.5 7.5h231.90625c25.570312 0 23.359375 23.335938 23.359375 23.359375 0 24.605469-20.015625 44.621094-44.617188 44.621094h-314.894531c-24.601563 0-44.621094-20.015625-44.621094-44.578125 0-.066406-.933593-23.402344 23.363281-23.402344h93.996094c4.140625 0 7.5-3.355469 7.5-7.5 0-4.140625-3.359375-7.5-7.5-7.5h-66.914062c-23.367188-8.527343-38.988282-30.777343-38.988282-55.75 0-8.914062 2.015626-17.730469 5.84375-25.699219 4.652344-1.566406 9-4.183593 12.695313-7.792968 7.308594-7.128906 14.453125-13.035156 27.960937-13.035156 14.910157 0 22.242188 7.316406 30.730469 15.78125 9.472657 9.449218 20.207031 20.160156 41.320313 20.160156 10.003906 0 17.675781-2.40625 23.988281-5.941406v16.039062c0 16.691406 13.578125 30.269531 30.269531 30.269531 16.339844 0 29.910156-13.289062 30.253906-29.625 0-.058593.191407-10.742187 9.800782-10.742187 5.394531 0 9.785156 4.390625 9.785156 9.789062v18.128906c0 16.6875 13.578125 30.265626 30.265625 30.265626 16.691406 0 30.269531-13.578126 30.269531-30.265626 0 0 1.640625-12.777343-7.5-12.777343-8.945312 0-7.5 12.777343-7.5 12.777343 0 8.417969-6.847656 15.265626-15.269531 15.265626-8.417969 0-15.265625-6.847657-15.265625-15.265626v-18.128906c0-13.667968-11.121094-24.789062-24.785156-24.789062-24.847656 0-24.785156 23.875-24.800782 25.480468-.199218 8.214844-7.03125 14.886719-15.253906 14.886719-8.417968 0-15.269531-6.847656-15.269531-15.269531v-27.9375c.792969-.777344 10.871094-18.101562 33.070313-18.101562 14.914062 0 22.246093 7.316406 30.734374 15.78125 9.472657 9.449218 20.207032 20.160156 41.324219 20.160156 21.113281 0 31.851563-10.710938 41.324219-20.160156 8.488281-8.46875 15.816406-15.78125 30.730469-15.78125 13.503906 0 20.652343 5.90625 27.957031 13.035156 3.695312 3.609375 8.042969 6.226562 12.695312 7.789062 3.828126 7.972656 5.84375 16.792969 5.84375 25.699219.003907 24.976563-15.617187 47.226563-38.984374 55.753906zm51.265624-96.367187c-5.515624 2.472656-13.757812 2.820312-20.34375-3.609375-8.574218-8.367188-19.320312-17.300781-38.433593-17.300781-21.117188 0-31.851563 10.710937-41.324219 20.160156-8.488281 8.46875-15.816406 15.78125-30.730469 15.78125-14.914062 0-22.242187-7.3125-30.730469-15.78125-9.472656-9.449219-20.210937-20.160156-41.324218-20.160156-21.117188 0-31.855469 10.710937-41.328125 20.160156-8.488281 8.46875-15.820313 15.78125-30.730469 15.78125-14.914062 0-22.242188-7.3125-30.730469-15.78125-9.472656-9.449219-20.210937-20.160156-41.324219-20.160156-19.113281 0-29.859374 8.933593-38.4375 17.300781-6.585937 6.433593-14.824218 6.082031-20.339843 3.609375-5.398438-2.425782-11.023438-8.214844-10.613281-17.203125 1.21875-26.652344 10.902343-51.066407 28.789062-72.675781 13.335938 13.386718 31.34375 20.925781 50.519531 20.925781h268.382813c19.179687 0 37.1875-7.539063 50.523437-20.925781 17.886719 21.605468 27.566407 46.015624 28.789063 72.675781.410156 8.988281-5.214844 14.777343-10.613282 17.203125zm0 0"/><path d="m264.625 164.539062v-20.429687c0-8.367187-6.804688-15.171875-15.167969-15.171875h-40.859375c-8.367187 0-15.171875 6.804688-15.171875 15.171875v20.429687c0 19.628907 15.96875 35.601563 35.601563 35.601563 19.628906 0 35.597656-15.96875 35.597656-35.601563zm-56.199219 0v-20.429687c0-.097656 41.027344-.171875 41.027344-.171875.097656 0 .171875 20.601562.171875 20.601562 0 11.359376-9.242188 20.601563-20.601562 20.601563-11.359376 0-20.597657-9.242187-20.597657-20.601563zm0 0"/></svg>