<svg height="512pt" viewBox="0 0 512 512" width="512pt" xmlns="http://www.w3.org/2000/svg"><path d="m243.679688 269.804688v-181.867188c0-44.351562 36.027343-80.4375 80.308593-80.4375s80.308594 36.085938 80.308594 80.4375c0 9.960938-8.0625 18.035156-18.003906 18.035156-9.941407 0-18.003907-8.074218-18.003907-18.035156 0-24.464844-19.875-44.371094-44.300781-44.371094s-44.300781 19.90625-44.300781 44.371094v181.867188zm0 0" fill="#3d4751"/><path d="m323.988281 193.601562c0-36.257812-27.882812-65.648437-62.277343-65.648437-34.394532 0-62.273438 29.390625-62.273438 65.648437 0 36.253907 27.878906 65.644532 62.273438 65.644532 34.394531 0 62.277343-29.390625 62.277343-65.644532zm0 0" fill="#f4e74d"/><path d="m394.984375 194.289062h-277.972656c-60.480469 0-109.511719 49.109376-109.511719 109.691407 0 60.578125 49.03125 200.519531 109.511719 200.519531 26.1875 0 50.230469-26.234375 69.074219-60.90625 13.792968-25.371094 40.015624-41.320312 70.816406-41.320312 30.796875 0 55.21875 15.945312 69.011718 41.320312 18.84375 34.671875 42.882813 60.90625 69.070313 60.90625 60.484375 0 109.515625-139.9375 109.515625-200.519531s-49.03125-109.691407-109.515625-109.691407zm0 0" fill="#8697a6"/><path d="m117.011719 194.289062c-60.480469 0-109.511719 49.109376-109.511719 109.691407 0 60.578125 49.03125 200.519531 109.511719 200.519531 8.53125 0 16.839843-2.789062 24.8125-7.742188-8.648438-11.574218-13.464844-23.203124-16.125-33.160156-3.289063-12.316406-3.441407-25.289062-.59375-37.714844 10.347656-45.148437-1.144531-93.210937-5.667969-146.621093-4.414062-52.101563 40.992188-80.328125 49.171875-84.972657zm0 0" fill="#6b7d8e"/><path d="m415.53125 273.046875c0-11.574219-9.367188-20.957031-20.921875-20.957031s-20.925781 9.382812-20.925781 20.957031 9.371094 20.960937 20.925781 20.960937 20.921875-9.386718 20.921875-20.960937zm0 0" fill="#ff8a98"/><path d="m415.53125 361.574219c0-11.574219-9.367188-20.960938-20.921875-20.960938s-20.925781 9.386719-20.925781 20.960938 9.371094 20.957031 20.925781 20.957031 20.921875-9.382812 20.921875-20.957031zm0 0" fill="#ff8a98"/><path d="m371.339844 317.308594c0-11.574219-9.367188-20.957032-20.921875-20.957032-11.558594 0-20.925781 9.382813-20.925781 20.957032 0 11.578125 9.367187 20.960937 20.925781 20.960937 11.554687 0 20.921875-9.382812 20.921875-20.960937zm0 0" fill="#73da8c"/><path d="m459.722656 317.308594c0-11.574219-9.367187-20.957032-20.921875-20.957032-11.558593 0-20.925781 9.382813-20.925781 20.957032 0 11.578125 9.367188 20.960937 20.925781 20.960937 11.554688 0 20.921875-9.382812 20.921875-20.960937zm0 0" fill="#73da8c"/><path d="m177.28125 298.28125h-24.117188c-5.457031 0-9.882812-4.425781-9.882812-9.882812v-24.214844c0-10.492188-8.503906-19-18.996094-19-10.496094 0-19 8.507812-19 19v24.214844c0 5.457031-4.425781 9.882812-9.882812 9.882812h-24.113282c-10.5 0-19.015624 8.511719-19.015624 19.015625v.027344c0 10.503906 8.515624 19.015625 19.015624 19.015625h24.117188c5.457031 0 9.878906 4.425781 9.878906 9.882812v24.214844c0 10.492188 8.507813 19 19 19 10.492188 0 19-8.507812 19-19v-24.214844c0-5.457031 4.421875-9.882812 9.878906-9.882812h24.117188c10.5 0 19.015625-8.511719 19.015625-19.015625v-.027344c0-10.503906-8.515625-19.015625-19.015625-19.015625zm0 0" fill="#a4e7ff"/><path d="m260.3125 301.429688h-8.625c-9.425781 0-17.070312-7.640626-17.070312-17.070313v-.027344c0-9.425781 7.644531-17.070312 17.070312-17.070312h8.625c9.429688 0 17.070312 7.644531 17.070312 17.070312v.027344c0 9.429687-7.644531 17.070313-17.070312 17.070313zm0 0" fill="#fff"/><path d="m260.3125 361.628906h-8.625c-9.425781 0-17.070312-7.644531-17.070312-17.070312v-.03125c0-9.425782 7.644531-17.070313 17.070312-17.070313h8.625c9.429688 0 17.070312 7.644531 17.070312 17.070313v.03125c0 9.425781-7.644531 17.070312-17.070312 17.070312zm0 0" fill="#fff"/><path d="m94.605469 432.53125c-54.492188-11.078125-72.269531-50-72.269531-50 18.980468 59.523438 54.273437 121.96875 94.675781 121.96875 26.1875 0 50.230469-26.234375 69.074219-60.90625 7.160156-13.175781 17.65625-23.800781 30.421874-30.980469 0 0-58.367187 32.835938-121.902343 19.917969zm0 0" fill="#6b7d8e"/><path d="m417.394531 432.53125c54.492188-11.078125 72.269531-49.996094 72.269531-50-18.980468 59.523438-54.273437 121.96875-94.675781 121.96875-26.1875 0-50.230469-26.234375-69.074219-60.90625-7.160156-13.175781-16.667968-23.308594-29.476562-30.980469 0 0 57.421875 32.835938 120.957031 19.917969zm0 0" fill="#6b7d8e"/><path d="m117.011719 504.5c8.53125 0 16.839843-2.789062 24.8125-7.742188-8.648438-11.574218-13.464844-23.203124-16.125-33.160156-2.441407-9.15625-3.15625-18.675781-2.191407-28.066406-9.378906-.101562-19.074218-1-28.902343-3-54.492188-11.078125-72.269531-49.996094-72.269531-50 18.980468 59.523438 54.273437 121.96875 94.675781 121.96875zm0 0" fill="#546370"/><path d="m394.984375 186.789062h-63.808594c-2.476562-27.945312-20.007812-51.367187-43.988281-61.265624v-37.585938c0-20.332031 16.507812-36.871094 36.800781-36.871094s36.800781 16.539063 36.800781 36.871094c0 14.078125 11.441407 25.535156 25.503907 25.535156s25.503906-11.457031 25.503906-25.535156c0-48.488281-39.390625-87.9375-87.808594-87.9375-15.546875 0-30.832031 4.140625-44.207031 11.976562-3.574219 2.09375-4.773438 6.6875-2.683594 10.261719 2.09375 3.574219 6.691406 4.773438 10.261719 2.683594 11.082031-6.492187 23.746094-9.921875 36.628906-9.921875 40.148438 0 72.808594 32.71875 72.808594 72.9375 0 5.808594-4.710937 10.535156-10.503906 10.535156s-10.503907-4.726562-10.503907-10.535156c0-28.601562-23.238281-51.871094-51.800781-51.871094s-51.800781 23.269532-51.800781 51.871094v33.34375c-3.417969-.542969-6.914062-.828125-10.476562-.828125-3.578126 0-7.09375.285156-10.53125.835937v-33.351562c0-15.835938 5-30.90625 14.464843-43.582031 2.476563-3.316407 1.792969-8.015625-1.523437-10.496094-3.320313-2.476563-8.019532-1.792969-10.5 1.527344-11.410156 15.285156-17.441406 33.457031-17.441406 52.550781v37.613281c-23.953126 9.910157-41.457032 33.316407-43.929688 61.242188h-75.234375c-64.523437-.003907-117.015625 52.566406-117.015625 117.1875 0 32.828125 13.476562 84.703125 32.777344 126.140625 14.238281 30.582031 44.117187 81.878906 84.238281 81.878906 26.449219 0 52.609375-22.414062 75.660156-64.824219 12.730469-23.421875 36.738281-37.40625 64.226563-37.40625 27.144531 0 49.3125 13.285157 62.421875 37.40625 23.046875 42.410157 49.210937 64.824219 75.660156 64.824219 40.121094 0 70-51.296875 84.238281-81.875 19.296875-41.441406 32.777344-93.316406 32.777344-126.144531 0-64.621094-52.492188-117.191407-117.015625-117.191407zm-133.273437-51.335937c28.03125 0 51.199218 22.472656 54.390624 51.335937h-108.777343c3.1875-28.863281 26.355469-51.335937 54.386719-51.335937zm-144.695313 361.546875c-37.804687 0-72.289063-76.804688-73.097656-78.628906 11.816406 8.851562 27.875 17.179687 49.195312 21.511718 11.0625 2.25 21.933594 3.1875 32.382813 3.1875 21.691406 0 41.550781-4.046874 57.425781-8.808593-1.203125 1.859375-30.390625 62.738281-65.90625 62.738281zm277.96875 0c-31.832031 0-64.769531-61.007812-66-62.925781 40.320313 13.285156 78.84375 8.054687 89.902344 5.808593 4.058593-.824218 6.683593-4.785156 5.855469-8.84375-.824219-4.058593-4.785157-6.683593-8.84375-5.855468-59.789063 12.152344-115.992188-19.210938-116.117188-19.273438-12.617188-7.257812-27.175781-11.136718-42.878906-11.136718-16.292969 0-31.578125 4.109374-44.738282 11.664062-6.527343 3.449219-59.667968 30.207031-116.0625 18.746094-47.769531-9.710938-64.878906-41.597656-66.773437-45.417969-8.878906-27.910156-14.328125-55.730469-14.328125-75.785156 0-56.347657 45.761719-102.191407 102.015625-102.191407h277.972656c56.25 0 102.011719 45.84375 102.011719 102.191407 0 20.050781-5.445312 47.859375-14.320312 75.761719-6.050782 16.609374-24.480469 28.953124-39.605469 36.339843-3.722657 1.820313-5.265625 6.308594-3.449219 10.03125 1.300781 2.664063 5.351562 5.53125 10.03125 3.449219 7.136719-3.179688 13.15625-7.3125 18.488281-11.328125-.832031 1.867187-35.0625 78.765625-73.160156 78.765625zm0 0"/><path d="m394.609375 301.507812c15.671875 0 28.421875-12.769531 28.421875-28.460937s-12.75-28.457031-28.421875-28.457031-28.425781 12.765625-28.425781 28.457031 12.75 28.460937 28.425781 28.460937zm0-41.917968c7.402344 0 13.421875 6.035156 13.421875 13.457031s-6.019531 13.457031-13.421875 13.457031-13.425781-6.035156-13.425781-13.457031c0-7.417969 6.023437-13.457031 13.425781-13.457031zm0 0"/><path d="m394.609375 333.113281c-15.671875 0-28.425781 12.769531-28.425781 28.460938 0 15.691406 12.75 28.457031 28.425781 28.457031 15.671875 0 28.421875-12.765625 28.421875-28.457031 0-15.691407-12.75-28.460938-28.421875-28.460938zm0 41.917969c-7.402344 0-13.425781-6.039062-13.425781-13.457031 0-7.421875 6.023437-13.460938 13.425781-13.460938s13.421875 6.039063 13.421875 13.460938c0 7.417969-6.019531 13.457031-13.421875 13.457031zm0 0"/><path d="m378.84375 317.308594c0-15.691406-12.753906-28.457032-28.425781-28.457032-15.675781 0-28.425781 12.765626-28.425781 28.457032 0 15.695312 12.75 28.460937 28.425781 28.460937 15.671875 0 28.425781-12.765625 28.425781-28.460937zm-28.425781 13.460937c-7.402344 0-13.425781-6.039062-13.425781-13.457031 0-7.421875 6.023437-13.460938 13.425781-13.460938 7.402343 0 13.425781 6.039063 13.425781 13.460938 0 7.417969-6.023438 13.457031-13.425781 13.457031zm0 0"/><path d="m467.226562 317.308594c0-15.691406-12.753906-28.457032-28.425781-28.457032s-28.425781 12.765626-28.425781 28.457032c0 15.695312 12.753906 28.460937 28.425781 28.460937s28.425781-12.765625 28.425781-28.460937zm-28.425781 13.460937c-7.402343 0-13.425781-6.039062-13.425781-13.457031 0-7.421875 6.023438-13.460938 13.425781-13.460938 7.402344 0 13.425781 6.039063 13.425781 13.460938 0 7.417969-6.023437 13.457031-13.425781 13.457031zm0 0"/><path d="m177.28125 290.78125h-24.117188c-1.3125 0-2.382812-1.066406-2.382812-2.382812v-24.214844c0-14.613282-11.886719-26.5-26.496094-26.5-14.613281 0-26.5 11.886718-26.5 26.5v24.214844c0 1.316406-1.066406 2.382812-2.382812 2.382812h-24.113282c-14.621093 0-26.515624 11.894531-26.515624 26.542969 0 12.296875 8.34375 22.898437 20.285156 25.777343 4.027344.972657 8.078125-1.503906 9.046875-5.53125.972656-4.027343-1.503907-8.078124-5.53125-9.050781-5.179688-1.25-8.800781-5.851562-8.800781-11.222656 0-6.351563 5.167968-11.515625 11.515624-11.515625h24.117188c9.582031 0 17.378906-7.796875 17.378906-17.382812v-24.214844c0-6.339844 5.160156-11.5 11.5-11.5s11.5 5.160156 11.5 11.5v24.214844c0 9.585937 7.796875 17.382812 17.378906 17.382812h24.117188c6.347656 0 11.515625 5.164062 11.515625 11.542969 0 6.351562-5.167969 11.515625-11.515625 11.515625h-24.117188c-9.582031 0-17.378906 7.796875-17.378906 17.382812v24.214844c0 6.339844-5.160156 11.5-11.5 11.5s-11.5-5.160156-11.5-11.5v-24.214844c0-9.585937-7.796875-17.382812-17.378906-17.382812-4.144531 0-7.5 3.359375-7.5 7.5s3.355469 7.5 7.5 7.5c1.3125 0 2.378906 1.066406 2.378906 2.382812v24.214844c0 14.609375 11.886719 26.5 26.5 26.5 14.613282 0 26.5-11.886719 26.5-26.5v-24.214844c0-1.316406 1.066406-2.382812 2.378906-2.382812h24.117188c14.621094 0 26.515625-11.894532 26.515625-26.542969-.003906-14.621094-11.898437-26.515625-26.515625-26.515625zm0 0"/><path d="m260.3125 259.761719h-8.625c-13.546875 0-24.570312 11.023437-24.570312 24.597656 0 13.546875 11.023437 24.570313 24.570312 24.570313h8.625c13.546875 0 24.570312-11.023438 24.570312-24.597657 0-13.546875-11.023437-24.570312-24.570312-24.570312zm0 34.167969h-8.625c-5.277344 0-9.570312-4.292969-9.570312-9.597657 0-5.277343 4.292968-9.570312 9.570312-9.570312h8.625c5.277344 0 9.570312 4.292969 9.570312 9.597656 0 5.277344-4.292968 9.570313-9.570312 9.570313zm0 0"/><path d="m260.3125 319.960938h-8.625c-13.546875 0-24.570312 11.019531-24.570312 24.597656 0 13.546875 11.023437 24.570312 24.570312 24.570312h8.625c13.546875 0 24.570312-11.023437 24.570312-24.597656 0-13.550781-11.023437-24.570312-24.570312-24.570312zm0 34.167968h-8.625c-5.277344 0-9.570312-4.292968-9.570312-9.597656 0-5.277344 4.292968-9.570312 9.570312-9.570312h8.625c5.277344 0 9.570312 4.292968 9.570312 9.597656 0 5.277344-4.292968 9.570312-9.570312 9.570312zm0 0"/></svg>