<svg height="511pt" viewBox="-59 0 511 511.9981" width="511pt" xmlns="http://www.w3.org/2000/svg"><path d="m156.140625 278.527344-72.230469 8.960937-23.269531-187.589843c-2.476563-19.945313 11.6875-38.121094 31.632813-40.597657 19.949218-2.472656 38.125 11.691407 40.597656 31.636719zm0 0" fill="#ffb2a6"/><path d="m228.375 269.570312-72.234375 8.957032-28.546875-230.148438c-2.476562-19.945312 11.6875-38.121094 31.636719-40.59375 19.945312-2.476562 38.121093 11.6875 40.597656 31.632813zm0 0" fill="#ff9e8f"/><path d="m293.304688 272.863281-72.050782-10.34375 26.867188-187.109375c2.855468-19.894531 21.300781-33.707031 41.195312-30.851562 19.894532 2.855468 33.710938 21.300781 30.851563 41.195312zm0 0" fill="#ffb2a6"/><path d="m365.351562 283.210938-72.046874-10.347657 21.121093-147.101562c2.855469-19.894531 21.300781-33.707031 41.195313-30.851563 19.894531 2.855469 33.707031 21.300782 30.851562 41.199219zm0 0" fill="#ff9e8f"/><path d="m224.726562 504.304688c-81.167968 0-146.96875-65.800782-146.96875-146.96875v-119.429688h293.9375v119.429688c0 81.167968-65.800781 146.96875-146.96875 146.96875zm0 0" fill="#ffcbbe"/><path d="m228.5 504.28125s-129.476562 11.0625-179.207031-128.855469l-39.09375-89.855469c-8.632813-19.84375 9.289062-41.085937 30.253906-35.710937 23.769531 6.097656 52.414063 25.472656 73.988281 77.75 5.304688 12.863281 16.992188 21.949219 30.761719 23.957031 22.394531 3.273438 55.617187 12.445313 72.335937 38.121094 26.613282 40.871094 10.960938 114.59375 10.960938 114.59375zm0 0" fill="#ffddcf"/><path d="m385.582031 104.621094c-7.027343-9.382813-17.289062-15.46875-28.894531-17.132813-10.945312-1.574219-21.535156 1.066407-30.148438 6.675781l1.054688-7.34375c1.664062-11.605468-1.289062-23.164062-8.3125-32.550781-7.03125-9.382812-17.292969-15.46875-28.898438-17.136719-11.601562-1.664062-23.164062 1.285157-32.550781 8.316407-9.382812 7.027343-15.46875 17.289062-17.136719 28.894531l-15.546874 108.28125-17.878907-144.128906c-1.441406-11.636719-7.332031-22.011719-16.578125-29.21875-9.246094-7.207032-20.75-10.378906-32.382812-8.9375-24.019532 2.980468-41.136719 24.941406-38.160156 48.964844l1.214843 9.777343c-8.804687-5.980469-19.347656-8.542969-30.011719-7.222656-11.632812 1.441406-22.011718 7.328125-29.21875 16.578125-7.207031 9.246094-10.378906 20.75-8.9375 32.382812l17.0625 137.554688v16.972656c-8.761718-5.949218-18.109374-10.230468-27.941406-12.753906-12.449218-3.195312-25.375.914062-33.734375 10.722656-8.410156 9.871094-10.425781 23.375-5.257812 35.246094l38.992187 89.621094c11.726563 32.894531 28.792969 60.410156 50.722656 81.777344 17.664063 17.207031 38.46875 30.453124 61.832032 39.367187 29.070312 11.097656 54.613281 12.671875 66.773437 12.671875 102.058594 0 157.550781-71.011719 157.550781-154.664062v-118.355469l.082032.011719 14.621094-101.820313c1.664062-11.605469-1.289063-23.164063-8.316407-32.550781zm-130.039062-28.144532c1.097656-7.640624 8.296875-27.175781 32.707031-24.496093 24.414062 2.683593 25.589844 25.070312 24.492188 32.710937l-20.917969 145.714844h-58.382813zm-95.386719-61.25c23.945312-3.582031 31.277344 17.457032 32.226562 25.117188l23.578126 190.0625h-58.230469l-22.691407-182.949219c-.953124-7.660156 1.167969-28.648437 25.117188-32.230469zm-66.957031 51.519532c25.117187-3.828125 31.28125 17.457031 32.230469 25.117187l17.1875 138.542969h-58.230469l-16.304688-131.429688c-.949219-7.660156 0-28.402343 25.117188-32.230468zm270.996093 290.589844c0 72.589843-55.746093 132.394531-126.675781 138.875 1.140625-7.527344 2.511719-18.882813 2.929688-31.964844.132812-4.140625-3.117188-7.605469-7.257813-7.734375-.078125-.003907-.160156-.003907-.242187-.003907-4.03125 0-7.363281 3.199219-7.492188 7.257813-.453125 14.207031-2.132812 26.421875-3.253906 33.222656-.125 0-.253906 0-.386719 0-10.746094 0-34.597656-1.367187-61.597656-11.667969-21.441406-8.183593-40.523438-20.328124-56.710938-36.101562-20.328124-19.808594-36.191406-45.480469-47.148437-76.300781-.058594-.164063-.121094-.324219-.1875-.480469l-39.09375-89.855469c-2.90625-6.675781-1.8125-13.976562 2.921875-19.535156 4.683594-5.492187 11.628906-7.703125 18.589844-5.921875 28.683594 7.359375 51.867187 32.035156 68.914062 73.347656 6.277344 15.210938 20.308594 26.136719 36.613282 28.519532 40.628906 5.933593 58.933593 22.191406 67.136718 34.789062 6.542969 10.050781 10.90625 23.421875 12.964844 39.742188.519531 4.109374 4.273438 7.019531 8.378906 6.503906 4.109375-.519532 7.019532-4.273438 6.503906-8.382813-2.34375-18.589843-7.484374-34.082031-15.277343-46.050781-9.890625-15.1875-31.367188-34.703125-77.535157-41.445312-11.101562-1.621094-20.648437-9.054688-24.917968-19.398438-9.847656-23.867188-21.992188-43.011719-36.113282-56.984375v-22.359375h278.9375zm14.851563-222.296876-13.691406 95.367188h-58.378907l14.871094-103.582031c2.269532-15.769531 17.027344-27.363281 32.707032-24.488281 25.140624 4.605468 25.589843 25.066406 24.492187 32.703124zm0 0"/></svg>