<svg height="511pt" viewBox="-70 1 511 511.999" width="511pt" xmlns="http://www.w3.org/2000/svg"><path d="m126.492188 480.585938h-57.855469v-59.238282c0-10.566406 8.5625-19.128906 19.128906-19.128906h19.597656c10.5625 0 19.128907 8.5625 19.128907 19.128906zm0 0" fill="#575757"/><path d="m49.113281 373.824219h181.308594v-53.105469h-181.308594c-14.664062 0-26.554687 11.886719-26.554687 26.554688 0 14.664062 11.890625 26.550781 26.554687 26.550781zm0 0" fill="#a4e7ff"/><path d="m113.800781 373.824219h116.621094v-53.105469h-83.839844c-12.90625 10.042969-27.136719 26.679688-32.78125 53.105469zm0 0" fill="#5ad6ff"/><path d="m196.265625 181.484375-49.75-49.753906 113.929687-113.925781c13.738282-13.738282 36.011719-13.738282 49.75 0 13.738282 13.738281 13.738282 36.011718 0 49.75zm0 0" fill="#a8a8a8"/><path d="m221.273438 56.976562-74.757813 74.757813 49.75 49.75 78.554687-78.550781c-15.835937-24.652344-36.296874-38.355469-53.546874-45.957032zm0 0" fill="#919191"/><g fill="#575757"><path d="m66.078125 261.921875c-9.15625-9.160156-9.15625-24.011719 0-33.167969l57.714844-57.714844 33.167969 33.171876-57.714844 57.710937c-9.15625 9.15625-24.007813 9.15625-33.167969 0zm0 0"/><path d="m27.601562 177.300781c-3.671874-12.417969 3.414063-25.46875 15.835938-29.144531l78.261719-23.15625 13.3125 44.976562-78.265625 23.160157c-12.417969 3.675781-25.464844-3.414063-29.144532-15.835938zm0 0"/><path d="m150.699219 300.398438c12.421875 3.671874 25.46875-3.414063 29.144531-15.835938l23.15625-78.261719-44.976562-13.3125-23.160157 78.265625c-3.675781 12.417969 3.414063 25.46875 15.835938 29.144532zm0 0"/></g><path d="m184.925781 218.332031s72.585938 62.933594 34.433594 161.488281h108.054687s27.910157-174.527343-96.179687-239.855468c-1.785156 1.167968-46.308594 78.367187-46.308594 78.367187zm0 0" fill="#919191"/><path d="m282.507812 181.699219c-13.238281-16.164063-30.027343-30.550781-51.273437-41.734375-1.78125 1.167968-46.308594 78.367187-46.308594 78.367187s21.351563 18.511719 34.808594 51.175781c6.742187-6.746093 15.9375-15.109374 28.492187-25.320312 23.148438-18.824219 31.511719-43.535156 34.28125-62.488281zm0 0" fill="#767678"/><path d="m255.945312 156.609375c0 46.699219-37.855468 84.554687-84.554687 84.554687s-84.554687-37.855468-84.554687-84.554687 37.855468-84.554687 84.554687-84.554687 84.554687 37.855468 84.554687 84.554687zm0 0" fill="#c6c6c6"/><path d="m310.195312 17.804688c-13.738281-13.738282-36.011718-13.738282-49.75 0l-14.808593 14.804687 49.753906 49.753906 14.804687-14.808593c13.738282-13.738282 13.738282-36.011719 0-49.75zm0 0" fill="#358cd9"/><path d="m165.605469 465.582031h164.496093v-109.585937c0-19.484375-15.796874-35.277344-35.277343-35.277344h-72.859375c-31.125 0-56.359375 25.234375-56.359375 56.359375zm0 0" fill="#a8a8a8"/><path d="m38.136719 504.5h296.566406c16.640625 0 30.132813-13.492188 30.132813-30.136719 0-16.640625-13.492188-30.132812-30.132813-30.132812h-296.566406c-16.644531 0-30.136719 13.492187-30.136719 30.132812 0 16.644531 13.492188 30.136719 30.136719 30.136719zm0 0" fill="#c6c6c6"/><path d="m86.835938 474.363281c0-16.640625 13.492187-30.132812 30.136718-30.132812h-78.835937c-16.644531 0-30.136719 13.492187-30.136719 30.132812 0 16.644531 13.492188 30.136719 30.136719 30.136719h78.835937c-16.644531 0-30.136718-13.492188-30.136718-30.136719zm0 0" fill="#a8a8a8"/><path d="m242.90625 373.824219c0 13.367187-10.839844 24.207031-24.207031 24.207031-13.371094 0-24.207031-10.839844-24.207031-24.207031 0-13.367188 10.835937-24.207031 24.207031-24.207031 13.367187 0 24.207031 10.839843 24.207031 24.207031zm0 0" fill="#575757"/><path d="m337.601562 436.851562v-80.855468c0-25.402344-.4375-64.097656-10.386718-100.789063-11.867188-43.753906-33.355469-78.417969-63.875-103.082031-.378906-7.910156-1.761719-15.632812-4.070313-23.035156l56.230469-56.230469c8.0625-8.058594 12.5-18.777344 12.5-30.179687 0-11.398438-4.441406-22.117188-12.5-30.175782-8.0625-8.066406-18.78125-12.503906-30.179688-12.503906-11.398437 0-22.117187 4.4375-30.179687 12.5l-56.230469 56.230469c-8.792968-2.742188-18.042968-4.175781-27.519531-4.175781-24.589844 0-47.707031 9.574218-65.09375 26.960937s-26.960937 40.503906-26.960937 65.09375c0 7.261719.855468 14.390625 2.480468 21.285156l-27.199218 8.050781c-4.082032 1.207032-16.457032 2.097657-19.824219-10.773437-3.367188-12.867187 6.6875-18.613281 10.773437-19.824219l13.074219-3.867187c3.972656-1.175781 6.242187-5.347657 5.066406-9.320313s-5.347656-6.242187-9.320312-5.066406l-13.078125 3.871094c-7.925782 2.347656-26.953125 12.238281-20.894532 38.464844 6.21875 26.9375 35.554688 21.757812 38.460938 20.898437l27.5625-8.15625c.550781 1.308594 1.121094 2.601563 1.730469 3.886719l-27.390625 27.390625c-5.847656 5.847656-17.792969 26.597656 0 43.773437 17.792968 17.175782 37.738281 6.035156 43.773437 0l27.394531-27.390625c1.277344.609375 2.578126 1.183594 3.882813 1.730469l-8.152344 27.558594c-2.347656 7.929687-4.058593 33.011718 20.894531 38.464844 27.296876 5.964843 36.121094-12.96875 38.464844-20.898438l11.886719-40.164062c10.460937 15.53125 21.492187 38.21875 23.640625 66.695312h-173.449219c-18.777343 0-34.054687 15.273438-34.054687 34.050781 0 18.777344 15.277344 34.054688 34.054687 34.054688h108.992188v55.40625h-24.113281v-15.386719c0-14.683594-11.945313-26.625-26.628907-26.625h-19.597656c-14.683594 0-26.628906 11.941406-26.628906 26.625v15.386719h-23.003907c-20.75 0-37.632812 16.882812-37.632812 37.632812 0 20.753907 16.882812 37.636719 37.632812 37.636719h296.566407c20.753906 0 37.636719-16.882812 37.636719-37.636719 0-19.773437-15.335938-36.023437-34.734376-37.511719zm-24.863281-177.71875c6.148438 22.671876 8.726563 44.996094 9.546875 64.097657-7.4375-6.242188-17.015625-10.011719-27.460937-10.011719h-57.214844c-2.128906-31.519531-14.046875-56.652344-25.535156-74.003906 8.921875-4.40625 17.167969-10.269532 24.410156-17.511719 13.925781-13.925781 22.824219-31.53125 25.824219-50.621094 23.601562 22.042969 40.542968 51.597657 50.429687 88.050781zm-7.84375-236.023437c14.058594 14.058594 5.226563 33.914063-.003906 39.144531l-9.5 9.5-39.144531-39.144531 9.5-9.5c5.230468-5.230469 25.085937-14.0625 39.148437 0zm-59.257812 20.109375 39.148437 39.144531-31.71875 31.714844c-13.425781-23.664063-30.929687-34.851563-39.144531-39.144531zm-128.730469 58.902344c14.554688-14.554688 33.902344-22.566406 54.484375-22.566406s39.933594 8.011718 54.484375 22.566406c14.554688 14.554687 22.570312 33.90625 22.570312 54.488281s-8.015624 39.929687-22.570312 54.484375c-14.550781 14.554688-33.902344 22.570312-54.484375 22.570312s-39.933594-8.015624-54.484375-22.570312c-14.554688-14.554688-22.570312-33.902344-22.570312-54.484375s8.015624-39.933594 22.570312-54.488281zm-22.960938 154.496094c-6.222656 6.222656-16.40625 6.28125-22.5625 0-7.535156-7.6875-3.015624-19.546876 0-22.5625l24.621094-24.621094c3.050782 4.332031 6.46875 8.445312 10.292969 12.265625 3.824219 3.824219 7.9375 7.246093 12.269531 10.292969zm78.707032 25.816406c-1.210938 4.085937-6.933594 14.253906-19.828125 10.769531-12.890625-3.484375-11.976563-15.738281-10.769531-19.824219l8.046874-27.195312c6.898438 1.625 14.027344 2.480468 21.289063 2.480468 3.867187 0 7.691406-.265624 11.46875-.730468zm-142.59375 64.835937c0-10.503906 8.550781-19.050781 19.054687-19.050781h131.796875c-11.324218 9.527344-19.292968 22.910156-21.878906 38.105469h-109.917969c-10.507812 0-19.054687-8.546875-19.054687-19.054688zm46.078125 74.078125c0-6.414062 5.214843-11.628906 11.628906-11.628906h19.597656c6.414063 0 11.628907 5.214844 11.628907 11.628906v15.382813h-42.855469zm258.566406 75.652344h-296.566406c-12.480469 0-22.636719-10.152344-22.636719-22.636719 0-12.480469 10.15625-22.632812 22.636719-22.632812h216.414062c4.140625 0 7.5-3.359375 7.5-7.5s-3.359375-7.5-7.5-7.5h-81.445312v-59.652344c0-26.941406 21.917969-48.859375 48.859375-48.859375h72.859375c15.316406 0 27.777343 12.460938 27.777343 27.777344v80.734375h-37.097656c-4.140625 0-7.5 3.355469-7.5 7.5 0 4.140625 3.359375 7.5 7.5 7.5h49.195313c12.480469 0 22.636719 10.152343 22.636719 22.632812 0 12.484375-10.152344 22.636719-22.632813 22.636719zm0 0"/><path d="m218.699219 342.117188c-17.484375 0-31.707031 14.222656-31.707031 31.707031s14.222656 31.707031 31.707031 31.707031c17.480469 0 31.707031-14.222656 31.707031-31.707031s-14.226562-31.707031-31.707031-31.707031zm0 48.414062c-9.210938 0-16.707031-7.496094-16.707031-16.707031 0-9.210938 7.496093-16.707031 16.707031-16.707031 9.210937 0 16.707031 7.496093 16.707031 16.707031 0 9.210937-7.496094 16.707031-16.707031 16.707031zm0 0"/></svg>