<svg height="511pt" viewBox="0 -63 511.99989 511" width="511pt" xmlns="http://www.w3.org/2000/svg"><path d="m293.375 313.351562c-63.402344 22.605469-126.695312 34.207032-178.230469 32.65625-56.492187-1.695312-93.597656-19.445312-104.488281-49.980468-10.886719-30.535156 6.617188-67.757813 49.285156-104.816406 38.925782-33.808594 95.277344-64.875 158.679688-87.484376 63.398437-22.609374 126.695312-34.207031 178.226562-32.660156 56.492188 1.699219 93.597656 19.449219 104.488282 49.980469 10.886718 30.535156-6.617188 67.761719-49.285157 104.816406-38.925781 33.808594-95.277343 64.878907-158.675781 87.488281zm-64.304688-180.324218c-59.839843 21.335937-112.660156 50.34375-148.730468 81.671875-31.390625 27.261719-46.488282 53.757812-40.378906 70.878906 6.105468 17.121094 34.558593 28.089844 76.117187 29.335937 47.753906 1.4375 107.007813-9.527343 166.847656-30.863281 59.835938-21.339843 112.65625-50.34375 148.730469-81.671875 31.386719-27.261718 46.484375-53.761718 40.378906-70.882812-6.105468-17.117188-34.5625-28.085938-76.117187-29.335938-47.757813-1.433594-107.011719 9.527344-166.847657 30.867188zm0 0" fill="#81d9e7"/><path d="m39.960938 285.578125c-6.109376-17.121094 8.988281-43.617187 40.378906-70.878906 36.070312-31.328125 88.890625-60.332031 148.726562-81.671875 59.839844-21.339844 119.09375-32.300782 166.847656-30.867188 41.558594 1.25 70.015626 12.214844 76.121094 29.335938 0 0-12.839844-41.1875-53.1875-58.835938-6.964844-.820312-14.292968-1.363281-22-1.59375-51.53125-1.546875-114.828125 10.050782-178.226562 32.660156-63.402344 22.609376-119.753906 53.675782-158.679688 87.484376-5.335937 4.632812-10.273437 9.265624-14.816406 13.890624-18.945312 44.835938-5.164062 80.476563-5.164062 80.476563zm0 0" fill="#00bfd7"/><path d="m433.191406 192.808594c0 102.058594-82.734375 184.796875-184.796875 184.796875-102.058593 0-184.796875-82.738281-184.796875-184.796875 0-102.0625 82.738282-184.796875 184.796875-184.796875 102.0625 0 184.796875 82.734375 184.796875 184.796875zm0 0" fill="#ff8a98"/><path d="m235.933594 208.539062c-104.503906-20.828124-141.839844-68.859374-154.648438-94.625-20.144531 42.667969-24.050781 93.007813-6.953125 140.964844 34.28125 96.128906 140 146.269532 236.132813 111.988282 25.195312-8.984376 47.230468-22.875 65.417968-40.214844-19.195312-46.335938-58.8125-101.945313-139.949218-118.113282zm0 0" fill="#fd5c6f"/><path d="m451.097656 183.296875c-5.53125 6.242187-12.027344 12.640625-19.445312 19.082031-36.070313 31.328125-88.890625 60.332032-148.726563 81.667969-59.839843 21.339844-119.09375 32.300781-166.847656 30.867187-14.480469-.433593-27.363281-2.054687-38.269531-4.695312l12.050781 33.792969c7.925781 1.058593 16.363281 1.726562 25.28125 1.996093 51.535156 1.546876 114.832031-10.050781 178.230469-32.660156 63.402344-22.605468 119.753906-53.675781 158.679687-87.484375 3.773438-3.277343 7.339844-6.558593 10.71875-9.832031zm0 0" fill="#81d9e7"/><path d="m176.660156 220.289062-101.71875 36.269532c4.59375 12.507812 10.402344 24.226562 17.246094 35.0625l97.511719-34.769532c10.09375-3.601562 15.359375-14.707031 11.761719-24.800781-3.601563-10.097656-14.707032-15.363281-24.800782-11.761719zm0 0" fill="#eedb00"/><path d="m422.457031 130.738281c-7.210937-20.222656-17.582031-38.402343-30.359375-54.199219l-127.15625 45.351563c-10.097656 3.597656-15.363281 14.703125-11.761718 24.800781 3.597656 10.09375 14.703124 15.363282 24.800781 11.761719l68.429687-24.402344c9.40625-3.355469 19.753906 1.550781 23.109375 10.960938 3.355469 9.410156-1.550781 19.757812-10.960937 23.109375l-29.671875 10.582031c-10.097657 3.601563-15.363281 14.707031-11.761719 24.800781 3.601562 10.097656 14.703125 15.363282 24.800781 11.765625l91.042969-32.46875c-.949219-17.355469-4.378906-34.859375-10.511719-52.0625zm0 0" fill="#f4e74d"/><path d="m287.828125 74.453125c1.25 3.949219 5.464844 6.136719 9.414063 4.886719 3.949218-1.25 6.136718-5.464844 4.886718-9.414063l-3.757812-11.871093c-1.25-3.949219-5.464844-6.136719-9.414063-4.886719s-6.136719 5.464843-4.886719 9.414062zm0 0"/><path d="m144.582031 106.738281c-1.25-3.945312-5.460937-6.136719-9.414062-4.886719-3.945313 1.25-6.136719 5.464844-4.886719 9.414063l3.757812 11.871094c1.25 3.949219 5.464844 6.136719 9.414063 4.886719s6.136719-5.464844 4.886719-9.414063zm0 0"/><path d="m244.195312 83.445312c-3.410156-2.351562-8.082031-1.496093-10.433593 1.910157-7.757813 11.230469-22.121094 15.777343-34.929688 11.058593-3.886719-1.433593-8.199219.554688-9.628906 4.441407-1.433594 3.886719.554687 8.199219 4.441406 9.632812 9.617188 3.542969 19.820313 3.609375 29.074219.679688 9.253906-2.929688 17.558594-8.855469 23.386719-17.289063 2.351562-3.40625 1.5-8.078125-1.910157-10.433594zm0 0"/><path d="m508.398438 118.53125c-11.996094-33.648438-54.699219-52.277344-117.722657-55.074219-50.675781-55.589843-131.703125-78.578125-206.871093-51.773437-48.378907 17.253906-87.144532 52.3125-109.15625 98.722656-11.210938 23.640625-17.378907 48.78125-18.464844 74.15625-.382813.328125-.777344.65625-1.160156.988281-45.164063 39.21875-63.425782 79.351563-51.429688 112.996094s54.570312 59.300781 138.703125 54.628906c23.953125 15.8125 51.492187 26.238281 79.863281 30.167969 8.613282 1.191406 17.3125 1.785156 26.019532 1.785156 21.972656 0 43.992187-3.773437 64.808593-11.195312 28.867188-10.296875 54.113281-26.730469 75.03125-48.84375 19.679688-20.804688 34.6875-46.214844 43.480469-73.546875 9.121094-6.535157 17.644531-13.21875 25.46875-20.015625 3.128906-2.714844 3.460938-7.453125.746094-10.582032-2.714844-3.125-7.453125-3.457031-10.578125-.742187-38.238281 33.207031-93.742188 63.78125-156.28125 86.082031-62.539063 22.304688-124.851563 33.746094-175.484375 32.226563-53.191406-1.597657-87.867188-17.582031-97.644532-45.003907-9.0625-25.40625 4.652344-56.726562 38.660157-88.941406.425781 6.820313 1.210937 13.636719 2.375 20.417969-22.632813 24.121094-31.8125 46.425781-25.867188 63.109375 7.292969 20.445312 49.121094 33.914062 91.601563 34.445312 47.054687.585938 103.800781-11.046874 160.949218-31.425781 60.695313-21.644531 114.367188-51.148437 151.128907-83.074219 34.316406-29.804687 49.816406-58.621093 42.527343-79.0625-6.242187-17.5-29.144531-29.199218-64.59375-33.0625-3.453124-5.925781-7.199218-11.617187-11.207031-17.058593 49.40625 2.695312 81.609375 18.453125 90.972657 44.710937 7.800781 21.875-1.214844 48.164063-26.070313 76.019532-2.757813 3.089843-2.507813 7.851562.601563 10.589843 5.15625 4.539063 9.105468 1.058594 10.589843-.601562 36.300781-40.683594 35.808594-71.964844 29.003907-91.042969zm-212.503907 201.882812c41.960938-14.964843 80.910157-33.617187 113.921875-54.339843-8.144531 17.898437-19.230468 34.476562-32.691406 48.707031-19.28125 20.382812-42.554688 35.53125-69.175781 45.023438-26.800781 9.558593-55.753907 12.558593-83.734375 8.683593-19.363282-2.683593-38.304688-8.65625-55.804688-17.484375 40.015625-4.574218 83.75-14.996094 127.484375-30.589844zm119.496094-187.160156c5.164063 14.484375 8.394531 29.339844 9.695313 44.394532l-85.679688 30.554687c-2.996094 1.070313-11.769531 1.910156-15.21875-7.214844-3.445312-9.128906 4.222656-14.152343 7.21875-15.21875l29.671875-10.582031c6.4375-2.296875 11.597656-6.960938 14.523437-13.132812 2.929688-6.175782 3.277344-13.125.980469-19.5625-4.738281-13.285157-19.402343-20.242188-32.691406-15.503907l-68.429687 24.402344c-6.1875 2.207031-13.011719-1.03125-15.21875-7.21875-2.207032-6.183594 1.03125-13.011719 7.21875-15.214844l122.027343-43.519531c10.789063 14.15625 19.613281 30.175781 25.902344 47.816406zm-368.367187 149.804688c-3.332032-9.335938 2.5-23.789063 15.761718-39.953125 1.308594 4.792969 2.796875 9.5625 4.484375 14.292969 6.152344 17.253906 14.582031 33.320312 25.144531 47.960937-24.621093-3.671875-41.632812-11.761719-45.390624-22.300781zm233.382812-6.074219c-105.929688 36.453125-166.339844 30.359375-167.441406 30.308594-11.746094-13.882813-21.207032-29.402344-28.214844-46.269531l94.429688-33.671876c10.375-3.226562 14.148437 4.222657 15.214843 7.21875 2.207031 6.183594-1.03125 13.011719-7.214843 15.21875l-67.042969 23.90625c-3.902344 1.390626-5.9375 5.679688-4.546875 9.582032 1.097656 3.070312 5.058594 6.121094 9.585937 4.546875l67.042969-23.910157c13.976562-4.984374 21.289062-20.410156 16.308594-34.386718-2.417969-6.769532-10.535156-23.402344-34.386719-16.304688l-94.566406 33.71875c-13.847657-43.066406-10.847657-89.046875 8.628906-130.109375 20.292969-42.789062 56.035156-75.113281 100.640625-91.023437 69.136719-24.652344 143.652344-3.625 190.394531 47.355468l-116.816406 41.660157c-21.140625 9.394531-18.71875 27.613281-16.304687 34.386719 4.984374 13.972656 20.402343 21.289062 34.382812 16.304687l68.429688-24.402344c5.496093-1.964843 11.566406.917969 13.527343 6.414063.949219 2.664062 1.667969 10.671875-6.414062 13.53125l-29.671875 10.578125c-6.773438 2.417969-24.011719 12.484375-16.308594 34.386719 8.050781 22.890624 31.429688 17.359374 34.382812 16.308593l81.300782-28.992187c-.007813 1.425781-.027344 2.851562-.070313 4.277344-35.355469 30.390624-86.644531 59.191406-145.269531 79.367187zm184.5625-142.96875c4.007812 11.230469-5.398438 29.828125-24.441406 49.632813-.894532-18.824219-9.140625-54.390626-17.535156-71.410157 22.773437 3.910157 38.453124 11.890625 41.976562 21.777344zm0 0"/></svg>