<svg height="511pt" viewBox="1 -18 511.999 511" width="511pt" xmlns="http://www.w3.org/2000/svg"><path d="m260.648438 238.195312-27.027344-34.757812c-7.722656-9.929688-7.722656-23.800781 0-33.730469l19.867187-25.550781-19.863281-25.542969c-7.726562-9.933593-7.726562-23.804687 0-33.738281l27.023438-34.746094c5.085937-6.539062 14.511718-7.71875 21.050781-2.632812 6.539062 5.085937 7.71875 14.507812 2.632812 21.046875l-25.820312 33.203125 19.863281 25.542968c7.722656 9.929688 7.722656 23.800782.003906 33.730469l-19.867187 25.550781 25.820312 33.210938zm0 0" fill="#767678"/><path d="m320.15625 46.660156c0 21.351563-17.308594 38.660156-38.660156 38.660156-21.351563 0-38.660156-17.308593-38.660156-38.660156 0-21.351562 17.308593-38.660156 38.660156-38.660156 21.351562 0 38.660156 17.308594 38.660156 38.660156zm0 0" fill="#fd5c6f"/><path d="m91.730469 386.75h-48.480469c-19.742188 0-35.75-16.007812-35.75-35.75v-58.332031c0-19.742188 16.007812-35.75 35.75-35.75h48.480469zm0 0" fill="#fd5c6f"/><path d="m420.269531 386.75h48.480469c19.742188 0 35.75-16.007812 35.75-35.75v-58.332031c0-19.742188-16.007812-35.75-35.75-35.75h-48.480469zm0 0" fill="#ff8a98"/><path d="m328.628906 467.730469h-145.257812c-68.109375 0-123.324219-55.214844-123.324219-123.324219v-45.148438c0-68.109374 55.214844-123.324218 123.324219-123.324218h145.257812c68.109375 0 123.324219 55.214844 123.324219 123.324218v45.148438c0 68.109375-55.214844 123.324219-123.324219 123.324219zm0 0" fill="#b5e9f1"/><path d="m298.816406 175.933594h-115.445312c-68.109375 0-123.324219 55.214844-123.324219 123.324218v45.148438c0 68.109375 55.214844 123.324219 123.324219 123.324219h95.238281c-24.925781-63.355469-82.851563-68.839844-84.414063-165.550781-1.808593-111.683594 104.621094-126.246094 104.621094-126.246094zm0 0" fill="#81d9e7"/><path d="m333.671875 355.167969h-155.34375c-32.105469 0-58.132813-26.03125-58.132813-58.136719 0-32.109375 26.027344-58.136719 58.132813-58.136719h155.34375c32.105469 0 58.132813 26.027344 58.132813 58.136719 0 32.105469-26.027344 58.136719-58.132813 58.136719zm0 0" fill="#f9ee80"/><path d="m178.328125 238.894531c-32.105469 0-58.132813 26.027344-58.132813 58.136719 0 32.105469 26.027344 58.136719 58.132813 58.136719h24.414063c-5.015626-14.199219-8.195313-31.289063-8.546876-52.988281-.421874-26.019532 5.03125-46.765626 13.644532-63.285157zm0 0" fill="#eedb00"/><path d="m310.550781 405.191406h-109.101562c-12.882813 0-23.328125 10.445313-23.328125 23.332032v39.097656c1.742187.074218 3.488281.109375 5.25.109375h145.257812c1.761719 0 3.507813-.035157 5.25-.109375v-39.097656c0-12.886719-10.445312-23.332032-23.328125-23.332032zm0 0" fill="#81d9e7"/><path d="m200.183594 310.816406c0-9.078125-9.242188-16.4375-20.640625-16.4375-11.402344 0-20.640625 7.359375-20.640625 16.4375s9.238281 16.4375 20.640625 16.4375c11.398437 0 20.640625-7.359375 20.640625-16.4375zm0 0" fill="#fff"/><path d="m353.097656 310.816406c0-9.078125-9.238281-16.4375-20.640625-16.4375-11.398437 0-20.640625 7.359375-20.640625 16.4375s9.242188 16.4375 20.640625 16.4375c11.402344 0 20.640625-7.359375 20.640625-16.4375zm0 0" fill="#fff"/><path d="m234.3125 405.191406h-32.863281c-12.882813 0-23.328125 10.445313-23.328125 23.332032v39.097656c1.742187.074218 3.488281.109375 5.25.109375h95.238281c-10.929687-27.78125-28.210937-44.445313-44.296875-62.539063zm0 0" fill="#3ccbde"/><path d="m317.804688 302.179688c4.144531 0 7.5-3.355469 7.5-7.5v-12.449219c0-4.140625-3.355469-7.5-7.5-7.5-4.140626 0-7.5 3.359375-7.5 7.5v12.449219c0 4.144531 3.359374 7.5 7.5 7.5zm0 0"/><path d="m194.195312 302.179688c4.140626 0 7.5-3.355469 7.5-7.5v-12.449219c0-4.140625-3.359374-7.5-7.5-7.5-4.144531 0-7.5 3.359375-7.5 7.5v12.449219c0 4.144531 3.355469 7.5 7.5 7.5zm0 0"/><path d="m256 304.953125c7.140625 0 13.738281-3.5625 17.660156-9.53125 2.273438-3.460937 1.3125-8.109375-2.152344-10.382813-1.269531-.835937-6.878906-2.996093-10.386718 2.148438-1.679688 2.46875-4.125 2.765625-5.121094 2.765625-.992188 0-3.484375-.269531-5.121094-2.765625-2.277344-3.460938-6.925781-4.425781-10.386718-2.148438-3.464844 2.273438-4.425782 6.921876-2.152344 10.382813 3.921875 5.96875 10.519531 9.53125 17.660156 9.53125zm0 0"/><path d="m333.671875 362.667969c36.1875 0 65.632813-29.445313 65.632813-65.636719s-29.441407-65.636719-65.632813-65.636719h-155.34375c-36.1875 0-65.632813 29.445313-65.632813 65.636719s29.441407 65.636719 65.632813 65.636719zm-205.976563-65.636719c0-27.921875 22.714844-50.636719 50.632813-50.636719h155.34375c27.917969 0 50.632813 22.714844 50.632813 50.636719 0 27.917969-22.714844 50.636719-50.632813 50.636719h-155.34375c-27.917969 0-50.632813-22.714844-50.632813-50.636719zm0 0"/><path d="m468.75 249.417969h-19.171875c-19.640625-47.484375-66.453125-80.980469-120.949219-80.980469h-46.515625s19.65625-20.8125 2.183594-45.753906l-16.285156-20.9375 7.273437-9.355469c31.941406 3.675781 52.371094-20.277344 52.371094-45.730469s-20.707031-46.160156-46.160156-46.160156-46.160156 20.707031-46.160156 46.160156c0 6.652344 1.425781 12.976563 3.972656 18.695313l-11.601563 14.917969c-9.835937 12.640624-9.835937 30.300781-.003906 42.941406l16.285156 20.941406s-17.867187 23.128906-18.566406 24.28125h-42.050781c-25.652344 0-50.496094 7.425781-71.835938 21.472656-3.460937 2.277344-4.421875 6.925782-2.144531 10.386719s6.933594 4.417969 10.390625 2.140625c18.886719-12.429688 40.875-19 63.589844-19h145.257812c63.867188 0 115.824219 51.957031 115.824219 115.824219v45.148437c0 63.863282-51.957031 115.824219-115.824219 115.824219h-143.007812v-31.710937c0-8.726563 7.101562-15.828126 15.828125-15.828126h109.101562c8.726563 0 15.828125 7.101563 15.828125 15.828126v7.882812c0 4.140625 3.359375 7.5 7.5 7.5 4.144532 0 7.5-3.359375 7.5-7.5v-7.882812c0-17-13.828125-30.828126-30.828125-30.828126h-109.101562c-17 0-30.828125 13.828126-30.828125 30.828126v31.003906c-57.886719-6.371094-103.074219-55.5625-103.074219-115.117188v-45.148437c0-28.242188 10.277344-55.445313 28.941406-76.597657 2.742188-3.105468 2.445313-7.84375-.660156-10.585937s-7.847656-2.445313-10.585937.660156c-9.679688 10.96875-17.355469 23.378907-22.835938 36.679688h-19.15625c-23.847656 0-43.25 19.402343-43.25 43.25v58.332031c0 23.847656 19.402344 43.25 43.25 43.25h19.171875c18.960937 45.839844 63.25 78.636719 115.324219 80.851562.125.007813 150.882812.128907 150.882812.128907 54.496094 0 101.308594-33.496094 120.949219-80.980469h19.171875c23.847656 0 43.25-19.402344 43.25-43.25v-58.332031c0-23.847657-19.402344-43.25-43.25-43.25zm-187.253906-233.917969c17.183594 0 31.160156 13.976562 31.160156 31.160156s-13.976562 31.160156-31.160156 31.160156c-17.179688 0-31.160156-13.980468-31.160156-31.160156 0-17.183594 13.980468-31.160156 31.160156-31.160156zm-22.085938 124.050781-19.863281-25.546875c-5.617187-7.21875-5.617187-17.304687 0-24.523437l8.554687-11.003907c3.457032 3.628907 7.496094 6.695313 11.964844 9.050782l-7.476562 9.613281c-2.105469 2.707031-2.105469 6.5 0 9.207031l19.867187 25.546875c5.613281 7.21875 5.613281 17.300781 0 24.523438l-9.34375 12.019531h-19.003906l15.300781-19.675781c2.105469-2.710938 2.105469-6.503907 0-9.210938zm-216.160156 239.699219c-15.578125 0-28.25-12.675781-28.25-28.25v-58.332031c0-15.578125 12.671875-28.25 28.25-28.25h14.015625c-3.109375 11.257812-4.71875 22.96875-4.71875 34.839843v45.148438c0 12.0625 1.648437 23.746094 4.71875 34.84375zm453.75-28.25c0 15.574219-12.671875 28.25-28.25 28.25h-14.015625c3.070313-11.097656 4.71875-22.78125 4.71875-34.84375v-45.148438c0-12.058593-1.648437-23.742187-4.71875-34.839843h14.015625c15.578125 0 28.25 12.671875 28.25 28.25zm0 0"/></svg>