<svg height="511pt" viewBox="-44 1 511 511.999" width="511pt" xmlns="http://www.w3.org/2000/svg"><path d="m8 154.238281v203.554688c0 7.90625 3.621094 15.8125 10.859375 20.898437l167.824219 117.886719c15.09375 10.601563 35.214844 10.601563 50.304687 0l167.828125-117.886719c7.238282-5.085937 10.980469-12.902344 10.980469-20.804687l-.121094-203.679688zm0 0" fill="#29ce69"/><path d="m415.742188 269.699219-178.628907 125.070312c-7.566406 5.3125-16.390625 7.960938-25.214843 7.949219v-248.480469l203.777343-.03125zm0 0" fill="#5ad6ff"/><path d="m237.113281 394.769531 86.1875-60.34375v101.609375l-86.1875 60.542969c-7.566406 5.3125-16.390625 7.960937-25.214843 7.949219v-101.808594c8.824218.011719 17.648437-2.636719 25.214843-7.949219zm0 0" fill="#fd5c6f"/><path d="m323.300781 334.425781-86.1875 60.34375c-7.566406 5.316407-16.390625 7.964844-25.214843 7.949219v-248.480469l111.402343-.023437zm0 0" fill="#f4e74d"/><path d="m211.898438 154.238281h-203.898438v203.554688c0 7.90625 3.621094 15.8125 10.859375 20.898437l167.824219 117.886719c7.566406 5.3125 16.390625 7.960937 25.214844 7.949219zm0 0" fill="#5ad6ff"/><path d="m8 269.660156 178.683594 125.109375c7.566406 5.316407 16.390625 7.964844 25.214844 7.949219v-248.480469h-203.898438zm0 0" fill="#29ce69"/><path d="m100.496094 154.230469v281.804687l86.1875 60.542969c7.566406 5.3125 16.390625 7.960937 25.214844 7.949219v-350.289063zm0 0" fill="#ffcd00"/><path d="m186.683594 15.421875-167.824219 117.886719c-14.476563 10.171875-14.476563 31.625 0 41.796875l167.824219 117.886719c15.09375 10.601562 35.214844 10.601562 50.304687 0l167.828125-117.886719c14.476563-10.171875 14.476563-31.625 0-41.796875l-167.828125-117.886719c-15.089843-10.601563-35.210937-10.601563-50.304687 0zm0 0" fill="#ff8a98"/><path d="m186.683594 394.769531-86.1875-60.34375v101.609375l86.1875 60.542969c7.566406 5.3125 16.390625 7.960937 25.214844 7.949219v-101.808594c-8.824219.011719-17.648438-2.636719-25.214844-7.949219zm0 0" fill="#f6334c"/><path d="m100.496094 334.425781 86.1875 60.34375c7.566406 5.316407 16.390625 7.964844 25.214844 7.949219v-248.480469l-111.402344-.007812zm0 0" fill="#eedb00"/><path d="m404.816406 175.105469c14.476563-10.171875 14.476563-31.625 0-41.796875l-16.984375-11.929688-64.609375-45.382812-222.726562 156.453125 86.1875 60.542969c15.09375 10.597656 35.210937 10.601562 50.304687 0l151.445313-106.378907zm0 0" fill="#a4e7ff"/><path d="m323.179688 232.449219-222.726563-156.453125-81.59375 57.3125c-14.476563 10.171875-14.476563 31.625 0 41.796875l24.839844 17.445312 142.984375 100.441407c15.09375 10.601562 35.214844 10.597656 50.304687 0l3.414063-2.398438zm0 0" fill="#73da8c"/><path d="m211.835938 154.238281-111.339844 78.210938 8.527344 5.988281 77.660156 54.554688c15.09375 10.601562 35.210937 10.601562 50.304687 0l86.191407-60.542969zm0 0" fill="#f9ee80"/><path d="m423.175781 154.199219c-.003906-10.746094-5.253906-20.851563-14.050781-27.027344l-117.570312-82.585937c-3.390626-2.386719-8.066407-1.5625-10.449219 1.824218-2.382813 3.390625-1.5625 8.066406 1.828125 10.449219l27.238281 19.136719-98.335937 69.074218-98.335938-69.074218 77.496094-54.4375c12.464844-8.753906 29.21875-8.753906 41.683594 0l23.722656 16.664062c3.386718 2.382813 8.066406 1.5625 10.449218-1.828125 2.378907-3.386719 1.5625-8.066406-1.828124-10.449219l-23.722657-16.660156c-17.621093-12.378906-41.304687-12.378906-58.929687 0l-167.824219 117.886719c-8.796875 6.179687-14.046875 16.285156-14.046875 27.035156v.03125 203.554688c0 10.75 5.25 20.855469 14.046875 27.035156l167.824219 117.886719c8.816406 6.1875 19.140625 9.285156 29.464844 9.285156 10.328124 0 20.652343-3.097656 29.464843-9.285156l167.828125-117.886719c8.871094-6.234375 14.167969-16.304687 14.167969-26.949219zm-99.953125-69.039063 77.28125 54.285156c4.875 3.425782 7.667969 8.804688 7.667969 14.761719 0 5.953125-2.792969 11.335938-7.667969 14.757813l-77.324218 54.316406-98.292969-69.042969zm-307.722656 96.75 77.492188 54.433594v83.671875l-77.492188-54.257813zm175.496094 104.941406-77.453125-54.40625 98.292969-69.042968 98.292968 69.042968-77.453125 54.40625c-12.460937 8.757813-29.214843 8.757813-41.679687 0zm-83-39.96875 74.375 52.246094c6.691406 4.699219 14.253906 7.609375 22.023437 8.742188v86.5625c-4.785156-1-9.332031-2.941406-13.410156-5.808594l-82.988281-58.105469zm111.402344 60.96875c7.730468-1.144531 15.25-4.050781 21.902343-8.722656l74.375-52.246094v83.722657l-82.875 58.027343c-4.070312 2.859376-8.617187 4.804688-13.402343 5.800782zm-196.230469-168.402343 77.285156-54.289063 98.335937 69.078125-98.292968 69.042969-77.324219-54.3125c-4.875-3.425781-7.667969-8.804688-7.667969-14.761719-.003906-5.957031 2.792969-11.335937 7.664063-14.757812zm.003906 233.101562c-4.875-3.421875-7.671875-8.800781-7.671875-14.757812v-73.722657l77.492188 54.257813v64.394531c0 4.140625 3.359374 7.5 7.503906 7.5 4.140625 0 7.5-3.359375 7.5-7.5v-53.890625l74.375 52.078125c6.621094 4.652344 14.128906 7.621094 22.023437 8.769532v86.542968c-4.726562-.988281-9.296875-2.898437-13.398437-5.78125zm209.503906 117.890625c-4.066406 2.855469-8.59375 4.761719-13.277343 5.757813v-86.519531c7.898437-1.148438 15.402343-4.117188 22.015624-8.765626l74.265626-51.996093v83.21875zm167.828125-117.890625-69.824218 49.046875v-83.183594l38.691406-27.089843c3.394531-2.378907 4.21875-7.054688 1.84375-10.449219-2.375-3.390625-7.050782-4.21875-10.445313-1.839844l-30.089843 21.066406v-83.757812l77.511718-54.445312.050782 83.898437-19.796876 13.859375c-3.390624 2.375-4.21875 7.050781-1.839843 10.445312 1.457031 2.082032 5.90625 4.714844 10.445312 1.839844l11.199219-7.839844.046875 73.78125c0 5.847657-2.84375 11.191407-7.792969 14.667969zm0 0"/></svg>