<svg height="511pt" viewBox="-42 1 511 511.999" width="511pt" xmlns="http://www.w3.org/2000/svg"><path d="m352.710938 504.5h-277.15625c-16.339844 0-29.585938-13.246094-29.585938-29.585938v-14.242187c0-49.230469 39.90625-89.140625 89.136719-89.140625h158.054687c49.230469 0 89.136719 39.910156 89.136719 89.140625v14.242187c0 16.339844-13.246094 29.585938-29.585937 29.585938zm0 0" fill="#73da8c"/><path d="m181.8125 452.539062c71.523438-7.980468 93.601562-48.734374 93.601562-48.734374v-32.273438h-140.308593c-49.230469 0-89.136719 39.910156-89.136719 89.140625v14.242187c0 16.339844 13.246094 29.585938 29.585938 29.585938h20.792968c12.953125-19.074219 39.363282-46.816406 85.464844-51.960938zm0 0" fill="#29ce69"/><path d="m275.414062 400.472656c0 33.84375-27.4375 61.277344-61.28125 61.277344s-61.28125-27.433594-61.28125-61.277344 27.4375-61.28125 61.28125-61.28125 61.28125 27.4375 61.28125 61.28125zm0 0" fill="#ffbd86"/><path d="m214.132812 339.191406c-33.84375 0-61.28125 27.4375-61.28125 61.28125 0 21.980469 11.570313 41.253906 28.960938 52.066406 68.707031-7.671874 91.796875-45.597656 93.5-48.558593.066406-1.167969.097656-2.324219.097656-3.507813.003906-33.84375-27.433594-61.28125-61.277344-61.28125zm0 0" fill="#ff9a5c"/><path d="m93.523438 276.355469c0 23.613281-19.144532 42.757812-42.761719 42.757812-23.613281 0-42.757813-19.144531-42.757813-42.757812 0-23.617188 19.144532-42.757813 42.757813-42.757813 23.617187 0 42.761719 19.140625 42.761719 42.757813zm0 0" fill="#ff9a5c"/><path d="m420.261719 276.355469c0 23.613281-19.144531 42.757812-42.757813 42.757812-23.617187 0-42.761718-19.144531-42.761718-42.757812 0-23.617188 19.144531-42.757813 42.761718-42.757813 23.613282 0 42.757813 19.140625 42.757813 42.757813zm0 0" fill="#ffbd86"/><path d="m229.648438 411.101562h-31.03125c-81.320313 0-147.851563-66.535156-147.851563-147.855468v-67.925782c0-89.851562 73.515625-163.371093 163.367187-163.371093 89.855469 0 163.371094 73.515625 163.371094 163.371093v67.925782c0 81.320312-66.535156 147.855468-147.855468 147.855468zm0 0" fill="#fed2a4"/><path d="m128.984375 299.46875c-7.621094-40.351562 4.835937-81.640625 32.121094-112.328125 40.574219-45.640625 53.027343-155.191406 53.027343-155.191406-89.851562 0-163.371093 73.515625-163.371093 163.371093v67.925782c0 80.769531 65.652343 146.949218 146.21875 147.84375-42.992188-35.605469-61.320313-76.285156-67.996094-111.621094zm0 0" fill="#ffbd86"/><path d="m122.5 65.367188s-60.304688 4.28125-74.003906 57.792968c-13.699219 53.515625 16.265625 83.910156 16.265625 83.910156h113.449219v-106.3125zm0 0" fill="#d97c41"/><path d="m66.222656 91.15625c2.089844 29.777344 10.832032 75.199219 41.515625 115.914062h70.472657v-106.3125l-55.710938-35.390624s-33.542969 2.378906-56.277344 25.789062zm0 0" fill="#af602d"/><path d="m101.039062 76.71875c3.742188 41.453125 23.402344 101.765625 100.230469 135.710938-3.011719.257812 175.796875-28.789063 175.796875-28.789063s14.613282-106.488281-72.621094-154.714844c-57.011718-31.523437-122.34375-22.03125-162.859374-10.710937-25.816407 7.21875-42.957032 31.804687-40.546876 58.503906zm0 0" fill="#e4996d"/><path d="m201.269531 212.429688c-.007812-.003907-.011719-.003907-.015625-.007813-.027344.007813-.027344.011719.015625.007813zm0 0" fill="#c68d6d"/><path d="m178.210938 100.757812c-29.644532-51.964843 10.597656-86.816406 17.769531-92.449218-20.460938 1.660156-39.175781 5.65625-54.390625 9.910156-25.820313 7.214844-42.960938 31.800781-40.550782 58.5 3.742188 41.453125 23.402344 101.757812 100.214844 135.703125 1.296875-.355469 77.5625-12.792969 129.210938-21.199219-56.222656-59.550781-128.296875-48.464844-152.253906-90.464844zm0 0" fill="#d97c41"/><path d="m98.074219 188.730469-29.09375-9.109375c-8.738281-2.734375-18.183594 1.351562-22.105469 9.625-4.96875 10.492187-10.289062 26.820312-10.289062 48.664062 0 21.839844 5.320312 38.171875 10.289062 48.660156 3.921875 8.277344 13.367188 12.359376 22.105469 9.625l29.09375-9.109374zm0 0" fill="#575757"/><path d="m330.191406 188.730469 29.09375-9.109375c8.738282-2.734375 18.1875 1.351562 22.105469 9.625 4.96875 10.492187 10.289063 26.820312 10.289063 48.664062 0 21.839844-5.320313 38.171875-10.289063 48.660156-3.917969 8.277344-13.367187 12.359376-22.105469 9.625l-29.09375-9.109374zm0 0" fill="#575757"/><path d="m296.664062 300.472656h-165.0625c-27.449218 0-49.699218-22.25-49.699218-49.699218v-25.726563c0-27.449219 22.25-49.699219 49.699218-49.699219h165.0625c27.449219 0 49.699219 22.25 49.699219 49.699219v25.726563c0 27.449218-22.25 49.699218-49.699219 49.699218zm0 0" fill="#7293df"/><path d="m232.210938 339.191406c0-13.640625-9.335938-24.699218-20.855469-24.699218s-20.859375 11.058593-20.859375 24.699218 9.339844 24.699219 20.859375 24.699219 20.855469-11.058594 20.855469-24.699219zm0 0" fill="#575757"/><path d="m296.664062 175.347656h-20.28125l-39.480468 39.476563c-6.253906 6.253906-6.253906 16.394531 0 22.644531 6.253906 6.253906 16.390625 6.253906 22.644531 0l57.683594-57.683594c-6.269531-2.847656-13.234375-4.4375-20.566407-4.4375zm0 0" fill="#fff"/><path d="m150.871094 256.703125c-6.25-6.253906-6.25-16.390625 0-22.644531l14.945312-14.941406c6.253906-6.253907 16.390625-6.253907 22.644532 0 6.25 6.25 6.25 16.390624 0 22.644531l-14.945313 14.941406c-6.25 6.253906-16.390625 6.253906-22.644531 0zm0 0" fill="#fff"/><path d="m398.988281 230.921875c-1.6875-33.296875-12.820312-48.464844-14.085937-50.023437 1.191406-13.367188 3.132812-59.453126-20.558594-102.429688-2-3.628906-6.5625-4.945312-10.191406-2.945312-3.625 2-4.945313 6.5625-2.945313 10.1875 18.148438 32.917968 19.703125 68.792968 19.160157 86.21875-4.300782-.960938-8.882813-.855469-13.320313.535156l-24.875 7.785156c-9.761719-7.753906-22.097656-12.40625-35.507813-12.40625h-147.6875c-29.28125-30.535156-38.195312-66.628906-40.464843-91.800781-2.082031-23.054688 12.679687-44.339844 35.097656-50.605469 76.324219-21.335938 127.617187-6.308594 157.210937 10.046875 13.027344 7.207031 24.445313 16.253906 33.933594 26.898437 2.757813 3.09375 7.496094 3.367188 10.589844.609376 3.089844-2.757813 3.363281-7.496094.605469-10.589844-10.613281-11.910156-23.355469-22.019532-37.871094-30.042969-26.503906-14.65625-57.191406-22.175781-91.207031-22.35546875-.429688-.00390625-.855469-.00390625-1.28125-.00390625-24.347656 0-49.917969 3.695312-76.023438 10.992188-25.234375 7.054687-43.046875 28.648437-45.851562 53.765624-27.273438 10.5625-45.800782 30.421876-52.484375 56.542969-5.421875 21.171875-5.003907 42.113281 1.164062 60.839844-5.808593 10.222656-12.089843 28.628906-13.113281 48.785156-21.832031 10.3125-33.683594 35.246094-26.851562 59.210938 6.292968 22.0625 22.128906 36.238281 54.292968 36.121093 8.109375 18.089844 19.667969 34.628907 34.039063 48.546876-31.699219 16.421874-52.292969 49.558593-52.292969 85.867187v14.242187c0 20.449219 16.636719 37.085938 37.085938 37.085938h277.15625c20.449218 0 37.085937-16.636719 37.085937-37.085938v-14.242187c0-27.199219-11.558594-53.289063-31.707031-71.578125-3.066406-2.78125-7.808594-2.554688-10.59375.511719-2.785156 3.070312-2.554688 7.8125.511718 10.59375 17.023438 15.453125 26.789063 37.492187 26.789063 60.46875v14.246093c0 12.175782-9.90625 22.082032-22.085937 22.082032h-277.15625c-12.179688 0-22.085938-9.90625-22.085938-22.082032v-14.242187c0-32.710937 19.78125-62.375 49.632812-75.113281 13 10.179687 27.492188 18.160156 42.835938 23.730468 4.347656 33.773438 33.261719 59.960938 68.195312 59.960938 34.929688 0 63.839844-26.179688 68.191407-59.945312 39.40625-14.339844 71.960937-44.308594 89.261719-83.046876 34.316406 2.503907 50.957031-23.871093 54.445312-36.835937 3.492188-12.960937 4.339844-44.804687-27.042969-58.5zm-37.460937-44.140625c5.15625-1.617188 10.785156.824219 13.085937 5.675781 4.363281 9.214844 9.566407 24.578125 9.566407 45.453125s-5.203126 36.238282-9.566407 45.449219c-2.300781 4.855469-7.925781 7.292969-13.085937 5.679687l-17.9375-5.617187c6.464844-9.265625 10.273437-20.519531 10.273437-32.648437v-25.726563c0-12.132813-3.808593-23.386719-10.273437-32.652344zm-305.765625-61.761719c6.089843-23.785156 22.46875-36.878906 38.167969-44.085937 2.683593 24.492187 11.207031 57.25 35.136718 86.976562-12.425781.546875-23.828125 5.078125-32.972656 12.34375l-24.871094-7.785156c-5.371094-1.683594-10.953125-1.507812-15.996094.191406-3.9375-14.824218-3.773437-30.808594.535157-47.640625zm28.914062 158.40625-17.9375 5.613281c-5.160156 1.613282-10.785156-.824218-13.085937-5.679687-4.363282-9.210937-9.566406-24.574219-9.566406-45.449219s5.203124-36.238281 9.566406-45.453125c2.300781-4.851562 7.921875-7.292969 13.085937-5.675781l17.9375 5.613281c-6.464843 9.265625-10.273437 20.519531-10.273437 32.652344v25.726563c0 12.132812 3.808594 23.382812 10.273437 32.652343zm-67.820312 2.597657c-4.097657-14.375 1.386719-29.242188 12.636719-37.777344 1.40625 18.492187 6.34375 32.542968 10.605468 41.535156 1.742188 3.675781 4.289063 6.761719 7.332032 9.152344 1.019531 4.28125 2.21875 8.507812 3.597656 12.671875-15.445313.109375-29.734375-10.019531-34.171875-25.582031zm197.277343 168.226562c-24.910156 0-45.914062-17.027344-51.996093-40.054688 11.890625 2.902344 24.140625 4.40625 36.480469 4.40625h31.03125c12.496093 0 24.722656-1.519531 36.476562-4.386718-6.089844 23.015625-27.085938 40.035156-51.992188 40.035156zm15.515626-50.648438h-31.03125c-61.53125 0-116.132813-41.023437-134.128907-99.109374 2.246094-.082032 31.605469-8.921876 31.605469-8.921876 9.765625 7.753907 22.101562 12.402344 35.507812 12.402344h15.058594c4.140625 0 7.5-3.355468 7.5-7.5 0-4.140625-3.359375-7.5-7.5-7.5h-15.058594c-23.269531 0-42.199218-18.929687-42.199218-42.199218v-25.726563c0-23.269531 18.929687-42.199219 42.199218-42.199219h165.0625c23.269532 0 42.199219 18.929688 42.199219 42.199219v25.726563c0 23.269531-18.929687 42.199218-42.199219 42.199218h-120.097656c-4.144531 0-7.5 3.359375-7.5 7.5 0 4.144532 3.355469 7.5 7.5 7.5h27.84375c-12.292968 3.527344-21.414062 16.183594-21.414062 31.21875 0 17.753906 12.722656 32.199219 28.355468 32.199219 15.636719 0 28.359376-14.445313 28.359376-32.199219 0-15.035156-9.125-27.691406-21.414063-31.21875h78.367187c13.40625 0 25.742188-4.648437 35.507813-12.40625 0 0 29.359375 8.84375 31.605469 8.925782-17.972656 58.15625-72.378906 99.109374-134.128906 99.109374zm-18.292969-81.609374c7.363281 0 13.355469 7.71875 13.355469 17.199218 0 9.484375-5.992188 17.199219-13.355469 17.199219-7.367188 0-13.359375-7.714844-13.359375-17.199219 0-9.480468 5.992187-17.199218 13.359375-17.199218zm200.195312-36.46875c-2.449219 9.09375-8.292969 16.691406-16.457031 21.386718-5.515625 3.179688-11.644531 4.765625-17.84375 4.710938 1.363281-4.148438 2.5625-8.378906 3.582031-12.679688 3.046875-2.394531 5.59375-5.480468 7.335938-9.15625 4.261719-9 9.207031-23.058594 10.609375-41.5625 3.722656 2.8125 6.882812 6.375 9.28125 10.542969 4.699218 8.160156 5.9375 17.664063 3.492187 26.757813zm0 0"/></svg>